<svg id="Capa_1" data-name="Capa 1" xmlns="http://www.w3.org/2000/svg" xmlns:xlink="http://www.w3.org/1999/xlink" viewBox="0 0 32 32"><defs><style>.cls-1{fill:#242020;}.cls-2{fill:#1f140f;}.cls-3{fill:url(#departure);}</style><linearGradient id="departure" x1="16" y1="31.39" x2="16" y2="0.65" gradientUnits="userSpaceOnUse"><stop offset="0" stop-color="#ec7f3a"/><stop offset="0" stop-color="#eb7d3b"/><stop offset="1" stop-color="#d82f43"/></linearGradient></defs><path class="cls-1" d="M31.07,13l0,0a2.11,2.11,0,0,0-.57-.62L25.8,9V8.74a3,3,0,0,0-2.94-3.09H21.18L17.26,2.83a2.13,2.13,0,0,0-2.52,0L10.82,5.65H9.11a3,3,0,0,0-2.94,3V9L1.52,12.37A2.1,2.1,0,0,0,1,13l0,0a2.12,2.12,0,0,0-.3,1.1v13.3a2.13,2.13,0,0,0,.56,1.45l0,0a2.14,2.14,0,0,0,1.57.68H29.21a2.12,2.12,0,0,0,1.41-.53h0a.53.53,0,0,0,.43-.22.5.5,0,0,0,.08-.44,2.1,2.1,0,0,0,.23-1V24a.52.52,0,0,0-1,0v3.38a1,1,0,0,1,0,.24l-9.37-6.51,4.42-3.29a.57.57,0,0,0,.41-.31l4.57-3.4v3.29a.52.52,0,0,0,1,0V14.12A2.12,2.12,0,0,0,31.07,13ZM15.35,3.68a1.11,1.11,0,0,1,1.3,0l2.74,2H12.61ZM6.17,10.31v5.88l-4-3ZM29.61,28.46a1.05,1.05,0,0,1-.4.07H2.79a1,1,0,0,1-.25,0l3.22-2.23a.52.52,0,1,0-.6-.86L1.74,27.79a1.16,1.16,0,0,1-.07-.37V14.15L6.2,17.52a.51.51,0,0,0,.45.34l4.53,3.37L7.16,24a.52.52,0,0,0-.13.73.51.51,0,0,0,.43.23.46.46,0,0,0,.29-.1l4.32-3L15,24a1.75,1.75,0,0,0,2.1,0l3-2.22ZM24.76,9.28V17l-8.33,6.2a.72.72,0,0,1-.86,0L12.4,20.83h0L7.21,17V8.71a2,2,0,0,1,1.89-2H22.86a2,2,0,0,1,1.9,2v.52h0Zm1,6.93V10.28l4.05,2.92Z"/><path class="cls-1" d="M30.85,18.87a.52.52,0,0,0-.52.52v2.55a.52.52,0,0,0,1,0V19.39A.52.52,0,0,0,30.85,18.87Z"/><path class="cls-1" d="M21.57,10.07H18.78a.52.52,0,0,0-.52.52.53.53,0,0,0,.52.53h2.79a.52.52,0,0,0,.52-.53A.52.52,0,0,0,21.57,10.07Z"/><path class="cls-1" d="M15.07,11.12h1.86a.52.52,0,0,0,.52-.53.52.52,0,0,0-.52-.52H15.07a.52.52,0,0,0-.52.52A.52.52,0,0,0,15.07,11.12Z"/><path class="cls-1" d="M13.22,10.07H9.64a.52.52,0,0,0-.52.52.52.52,0,0,0,.52.53h3.58a.53.53,0,0,0,.52-.53A.52.52,0,0,0,13.22,10.07Z"/><path class="cls-1" d="M21.57,13.54H14.14a.53.53,0,0,0,0,1.05h7.43a.53.53,0,0,0,0-1.05Z"/><path class="cls-1" d="M12.29,13.54H9.64a.53.53,0,0,0,0,1.05h2.65a.53.53,0,0,0,0-1.05Z"/><path class="cls-2" d="M31.07,13l0,0a2.11,2.11,0,0,0-.57-.62L25.8,9V8.74a3,3,0,0,0-2.94-3.09H21.18L17.26,2.83a2.13,2.13,0,0,0-2.52,0L10.82,5.65H9.11a3,3,0,0,0-2.94,3V9L1.52,12.37A2.1,2.1,0,0,0,1,13l0,0a2.12,2.12,0,0,0-.3,1.1v13.3a2.13,2.13,0,0,0,.56,1.45l0,0a2.14,2.14,0,0,0,1.57.68H29.21a2.12,2.12,0,0,0,1.41-.53h0a.53.53,0,0,0,.43-.22.5.5,0,0,0,.08-.44,2.1,2.1,0,0,0,.23-1V24a.52.52,0,0,0-1,0v3.38a1,1,0,0,1,0,.24l-9.37-6.51,4.42-3.29a.57.57,0,0,0,.41-.31l4.57-3.4v3.29a.52.52,0,0,0,1,0V14.12A2.12,2.12,0,0,0,31.07,13ZM15.35,3.68a1.11,1.11,0,0,1,1.3,0l2.74,2H12.61ZM6.17,10.31v5.88l-4-3ZM29.61,28.46a1.05,1.05,0,0,1-.4.07H2.79a1,1,0,0,1-.25,0l3.22-2.23a.52.52,0,1,0-.6-.86L1.74,27.79a1.16,1.16,0,0,1-.07-.37V14.15L6.2,17.52a.51.51,0,0,0,.45.34l4.53,3.37L7.16,24a.52.52,0,0,0-.13.73.51.51,0,0,0,.43.23.46.46,0,0,0,.29-.1l4.32-3L15,24a1.75,1.75,0,0,0,2.1,0l3-2.22ZM24.76,9.28V17l-8.33,6.2a.72.72,0,0,1-.86,0L12.4,20.83h0L7.21,17V8.71a2,2,0,0,1,1.89-2H22.86a2,2,0,0,1,1.9,2v.52h0Zm1,6.93V10.28l4.05,2.92Z"/><path class="cls-2" d="M30.85,18.87a.52.52,0,0,0-.52.52v2.55a.52.52,0,0,0,1,0V19.39A.52.52,0,0,0,30.85,18.87Z"/><path class="cls-2" d="M21.57,10.07H18.78a.52.52,0,0,0-.52.52.53.53,0,0,0,.52.53h2.79a.52.52,0,0,0,.52-.53A.52.52,0,0,0,21.57,10.07Z"/><path class="cls-2" d="M15.07,11.12h1.86a.52.52,0,0,0,.52-.53.52.52,0,0,0-.52-.52H15.07a.52.52,0,0,0-.52.52A.52.52,0,0,0,15.07,11.12Z"/><path class="cls-2" d="M13.22,10.07H9.64a.52.52,0,0,0-.52.52.52.52,0,0,0,.52.53h3.58a.53.53,0,0,0,.52-.53A.52.52,0,0,0,13.22,10.07Z"/><path class="cls-2" d="M21.57,13.54H14.14a.53.53,0,0,0,0,1.05h7.43a.53.53,0,0,0,0-1.05Z"/><path class="cls-2" d="M12.29,13.54H9.64a.53.53,0,0,0,0,1.05h2.65a.53.53,0,0,0,0-1.05Z"/><path class="cls-3" d="M31.07,13l0,0a2.11,2.11,0,0,0-.57-.62L25.8,9V8.74a3,3,0,0,0-2.94-3.09H21.18L17.26,2.83a2.13,2.13,0,0,0-2.52,0L10.82,5.65H9.11a3,3,0,0,0-2.94,3V9L1.52,12.37A2.1,2.1,0,0,0,1,13l0,0a2.12,2.12,0,0,0-.3,1.1v13.3a2.13,2.13,0,0,0,.56,1.45l0,0a2.14,2.14,0,0,0,1.57.68H29.21a2.12,2.12,0,0,0,1.41-.53h0a.53.53,0,0,0,.43-.22.5.5,0,0,0,.08-.44,2.1,2.1,0,0,0,.23-1V24a.52.52,0,0,0-1,0v3.38a1,1,0,0,1,0,.24l-9.37-6.51,4.42-3.29a.57.57,0,0,0,.41-.31l4.57-3.4v3.29a.52.52,0,0,0,1,0V14.12A2.12,2.12,0,0,0,31.07,13ZM15.35,3.68a1.11,1.11,0,0,1,1.3,0l2.74,2H12.61ZM6.17,10.31v5.88l-4-3ZM29.61,28.46a1.05,1.05,0,0,1-.4.07H2.79a1,1,0,0,1-.25,0l3.22-2.23a.52.52,0,1,0-.6-.86L1.74,27.79a1.16,1.16,0,0,1-.07-.37V14.15L6.2,17.52a.51.51,0,0,0,.45.34l4.53,3.37L7.16,24a.52.52,0,0,0-.13.73.51.51,0,0,0,.43.23.46.46,0,0,0,.29-.1l4.32-3L15,24a1.75,1.75,0,0,0,2.1,0l3-2.22ZM24.76,9.28V17l-8.33,6.2a.72.72,0,0,1-.86,0L12.4,20.83h0L7.21,17V8.71a2,2,0,0,1,1.89-2H22.86a2,2,0,0,1,1.9,2v.52h0Zm1,6.93V10.28l4.05,2.92Z"/><path class="cls-3" d="M30.85,18.87a.52.52,0,0,0-.52.52v2.55a.52.52,0,0,0,1,0V19.39A.52.52,0,0,0,30.85,18.87Z"/><path class="cls-3" d="M21.57,10.07H18.78a.52.52,0,0,0-.52.52.53.53,0,0,0,.52.53h2.79a.52.52,0,0,0,.52-.53A.52.52,0,0,0,21.57,10.07Z"/><path class="cls-3" d="M15.07,11.12h1.86a.52.52,0,0,0,.52-.53.52.52,0,0,0-.52-.52H15.07a.52.52,0,0,0-.52.52A.52.52,0,0,0,15.07,11.12Z"/><path class="cls-3" d="M13.22,10.07H9.64a.52.52,0,0,0-.52.52.52.52,0,0,0,.52.53h3.58a.53.53,0,0,0,.52-.53A.52.52,0,0,0,13.22,10.07Z"/><path class="cls-3" d="M21.57,13.54H14.14a.53.53,0,0,0,0,1.05h7.43a.53.53,0,0,0,0-1.05Z"/><path class="cls-3" d="M12.29,13.54H9.64a.53.53,0,0,0,0,1.05h2.65a.53.53,0,0,0,0-1.05Z"/></svg>