<svg id="Capa_1" data-name="Capa 1" xmlns="http://www.w3.org/2000/svg" xmlns:xlink="http://www.w3.org/1999/xlink" viewBox="0 0 32 32"><defs><style>.cls-1{fill:url(#departure);}.cls-2{fill:url(#departure-2);}.cls-3{fill:url(#departure-3);}.cls-4{fill:url(#departure-4);}.cls-5{fill:url(#departure-5);}.cls-6{fill:url(#departure-6);}.cls-7{fill:url(#departure-7);}.cls-8{fill:url(#departure-8);}.cls-9{fill:url(#departure-9);}.cls-10{fill:url(#departure-10);}.cls-11{fill:url(#departure-11);}</style><linearGradient id="departure" x1="8.5" y1="16.29" x2="8.5" y2="15.16" gradientUnits="userSpaceOnUse"><stop offset="0" stop-color="#ec7f3a"/><stop offset="0" stop-color="#eb7d3b"/><stop offset="1" stop-color="#d82f43"/></linearGradient><linearGradient id="departure-2" x1="4.8" y1="20.27" x2="4.8" y2="17.18" xlink:href="#departure"/><linearGradient id="departure-3" x1="4.8" y1="22.19" x2="4.8" y2="20.75" xlink:href="#departure"/><linearGradient id="departure-4" x1="8.65" y1="23.76" x2="8.65" y2="21.72" xlink:href="#departure"/><linearGradient id="departure-5" x1="8.65" y1="21.21" x2="8.65" y2="17.22" xlink:href="#departure"/><linearGradient id="departure-6" x1="25.19" y1="12.93" x2="25.19" y2="11.68" xlink:href="#departure"/><linearGradient id="departure-7" x1="16" y1="29.01" x2="16" y2="2.99" xlink:href="#departure"/><linearGradient id="departure-8" x1="27.2" y1="20.27" x2="27.2" y2="17.18" xlink:href="#departure"/><linearGradient id="departure-9" x1="27.2" y1="22.19" x2="27.2" y2="20.75" xlink:href="#departure"/><linearGradient id="departure-10" x1="23.35" y1="23.76" x2="23.35" y2="21.72" xlink:href="#departure"/><linearGradient id="departure-11" x1="23.35" y1="21.21" x2="23.35" y2="17.22" xlink:href="#departure"/></defs><path class="cls-1" d="M9,15.16h-.9a.57.57,0,0,0-.57.56.58.58,0,0,0,.57.57H9a.57.57,0,0,0,.56-.57A.56.56,0,0,0,9,15.16Z"/><path class="cls-2" d="M4.8,17.18a.57.57,0,0,0-.57.56v2a.57.57,0,0,0,.57.56.56.56,0,0,0,.56-.56v-2A.56.56,0,0,0,4.8,17.18Z"/><path class="cls-3" d="M4.8,20.75a.57.57,0,0,0-.57.57v.3a.58.58,0,0,0,.57.57.57.57,0,0,0,.56-.57v-.3A.56.56,0,0,0,4.8,20.75Z"/><path class="cls-4" d="M8.65,21.72a.56.56,0,0,0-.57.57v.9a.57.57,0,1,0,1.13,0v-.9A.56.56,0,0,0,8.65,21.72Z"/><path class="cls-5" d="M8.65,17.22a.56.56,0,0,0-.57.56v2.87a.57.57,0,0,0,1.13,0V17.78A.56.56,0,0,0,8.65,17.22Z"/><path class="cls-6" d="M24.83,12.78l.38.12a.51.51,0,0,0,.17,0,.56.56,0,0,0,.17-1.1l-.38-.12a.56.56,0,1,0-.34,1.07Z"/><path class="cls-7" d="M30.67,13.31l-3.52-1a.55.55,0,0,0-.69.39.57.57,0,0,0,.39.7l3.1.88v.88H18.72l.39-4,4.14,1.18a.44.44,0,0,0,.16,0,.56.56,0,0,0,.54-.41.55.55,0,0,0-.39-.69L19.23,10l.2-2a5.19,5.19,0,0,0-1.17-3.91,2.89,2.89,0,0,0-4.47,0A5.14,5.14,0,0,0,12.63,8l.19,2L1.33,13.31a.57.57,0,0,0-.41.54v1.87a.57.57,0,0,0,.57.57H6.37a.57.57,0,0,0,.56-.57.56.56,0,0,0-.56-.56H2.05v-.88l10.89-3.15.39,4h-2.7a.56.56,0,0,0-.56.56.57.57,0,0,0,.56.57h2.81l.64,6.56L10,25.28a.59.59,0,0,0-.27.57l.25,1.69a.57.57,0,0,0,.56.49h.1l3.92-.74v.11A1.6,1.6,0,0,0,16,29a1.6,1.6,0,0,0,1.49-1.62v-.11l3.88.74h.1a.57.57,0,0,0,.56-.49l.25-1.69a.59.59,0,0,0-.27-.57L18,22.87l.64-6.58h11.9a.57.57,0,0,0,.57-.57V13.85A.57.57,0,0,0,30.67,13.31ZM11,26.8l-.1-.74,3.33-2,.21,2.06ZM16,27.88c-.16,0-.34-.19-.38-.6L13.75,7.85a4,4,0,0,1,.88-3A1.94,1.94,0,0,1,16,4.12a1.9,1.9,0,0,1,1.39.69,4,4,0,0,1,.88,3L16.4,27.28C16.36,27.69,16.18,27.88,16,27.88Zm5.12-1.82L21,26.8l-3.4-.64.2-2.05Z"/><path class="cls-8" d="M27.2,17.18a.56.56,0,0,0-.56.56v2a.56.56,0,0,0,.56.56.57.57,0,0,0,.57-.56v-2A.57.57,0,0,0,27.2,17.18Z"/><path class="cls-9" d="M27.2,20.75a.56.56,0,0,0-.56.57v.3a.57.57,0,0,0,.56.57.58.58,0,0,0,.57-.57v-.3A.57.57,0,0,0,27.2,20.75Z"/><path class="cls-10" d="M23.35,21.72a.56.56,0,0,0-.56.57v.9a.56.56,0,0,0,.56.57.57.57,0,0,0,.57-.57v-.9A.57.57,0,0,0,23.35,21.72Z"/><path class="cls-11" d="M23.35,17.22a.56.56,0,0,0-.56.56v2.87a.56.56,0,0,0,.56.56.57.57,0,0,0,.57-.56V17.78A.57.57,0,0,0,23.35,17.22Z"/></svg>