<svg id="Capa_1" data-name="Capa 1" xmlns="http://www.w3.org/2000/svg" xmlns:xlink="http://www.w3.org/1999/xlink" viewBox="0 0 32 32"><defs><style>.cls-1{fill:url(#Degradado_sin_nombre_3);}</style><linearGradient id="Degradado_sin_nombre_3" x1="16" y1="29.9" x2="16" y2="2.01" gradientUnits="userSpaceOnUse"><stop offset="0" stop-color="#ec7f3a"/><stop offset="1" stop-color="#d82f43"/></linearGradient></defs><path class="cls-1" d="M17.78,4.29a2.13,2.13,0,0,0,.38-1.22,2.16,2.16,0,1,0-4.32,0,2.13,2.13,0,0,0,.38,1.22,13.46,13.46,0,1,0,3.56,0ZM14.91,3.07A1.09,1.09,0,1,1,16,4.16,1.09,1.09,0,0,1,14.91,3.07ZM16,30a12.4,12.4,0,1,1,12.39-12.4A12.41,12.41,0,0,1,16,30Z"/><path class="cls-1" d="M19.47,25.93A9,9,0,0,1,7.83,13.84a9.7,9.7,0,0,1,.51-.95,9,9,0,0,1,.95-1.26.55.55,0,0,0,0-.76.54.54,0,0,0-.75,0,10.49,10.49,0,0,0-1.06,1.42,10.81,10.81,0,0,0-.57,1.06,10,10,0,0,0-.93,4.23,10.07,10.07,0,0,0,14,9.3.53.53,0,0,0,.28-.7A.54.54,0,0,0,19.47,25.93Z"/><path class="cls-1" d="M23.14,23.11a8.41,8.41,0,0,1-1.07,1.16,8.63,8.63,0,0,1-.73.6.54.54,0,0,0,.64.86c.28-.21.56-.44.82-.67A10.26,10.26,0,0,0,24,23.77a.53.53,0,1,0-.84-.66Z"/><path class="cls-1" d="M16,7.55A10,10,0,0,0,10.82,9a.53.53,0,1,0,.55.91A9,9,0,0,1,24.64,20.16a9.18,9.18,0,0,1-.52,1.35.54.54,0,0,0,.25.71.52.52,0,0,0,.24.05.54.54,0,0,0,.48-.3,11,11,0,0,0,.58-1.51,10.42,10.42,0,0,0,.4-2.84A10.08,10.08,0,0,0,16,7.55Z"/><path class="cls-1" d="M11,22.79a.39.39,0,0,0,.27.11.42.42,0,0,0,.21-.06l4.06-2.66s0,0,0,0a2.49,2.49,0,0,0,.47,0,2.52,2.52,0,0,0,2.5-2.86l3-4.52a.38.38,0,0,0-.05-.48.36.36,0,0,0-.47-.05l-4.43,2.9a2.56,2.56,0,0,0-2.3.69,2.51,2.51,0,0,0-.65,2.4l-2.64,4A.38.38,0,0,0,11,22.79Zm8.85-8.86-1.63,2.49a2.29,2.29,0,0,0-.4-.54,2.72,2.72,0,0,0-.42-.34ZM15,16.63a1.46,1.46,0,0,1,1-.42,1.48,1.48,0,0,1,1,.42,1.47,1.47,0,0,1,0,2.07,1.45,1.45,0,0,1-2.07,0A1.47,1.47,0,0,1,15,16.63Zm-1,2.48a2.26,2.26,0,0,0,.28.35,2.54,2.54,0,0,0,.46.35l-2.11,1.38Z"/><path class="cls-1" d="M16.53,12.3V9.87a.53.53,0,0,0-1.06,0V12.3a.53.53,0,1,0,1.06,0Z"/><path class="cls-1" d="M15.47,23v2.42a.53.53,0,1,0,1.06,0V23a.53.53,0,1,0-1.06,0Z"/><path class="cls-1" d="M23.76,18.16a.54.54,0,0,0,0-1.07H21.33a.54.54,0,0,0,0,1.07Z"/><path class="cls-1" d="M10.67,17.09H8.24a.54.54,0,0,0,0,1.07h2.43a.54.54,0,0,0,0-1.07Z"/></svg>