<svg id="Capa_1" data-name="Capa 1" xmlns="http://www.w3.org/2000/svg" xmlns:xlink="http://www.w3.org/1999/xlink" viewBox="0 0 32 32"><defs><style>.cls-1{fill:url(#departure);}.cls-2{fill:url(#departure-2);}.cls-3{fill:url(#departure-3);}.cls-4{fill:url(#departure-4);}.cls-5{fill:url(#departure-5);}</style><linearGradient id="departure" x1="16.74" y1="23.99" x2="16.74" y2="8.01" gradientUnits="userSpaceOnUse"><stop offset="0" stop-color="#ec7f3a"/><stop offset="0" stop-color="#eb7d3b"/><stop offset="1" stop-color="#d82f43"/></linearGradient><linearGradient id="departure-2" x1="21.28" y1="22.88" x2="21.28" y2="20.63" xlink:href="#departure"/><linearGradient id="departure-3" x1="3.89" y1="10.08" x2="3.89" y2="4.83" xlink:href="#departure"/><linearGradient id="departure-4" x1="5.92" y1="10.08" x2="5.92" y2="4.83" xlink:href="#departure"/><linearGradient id="departure-5" x1="16" y1="27.98" x2="16" y2="4.02" xlink:href="#departure"/></defs><path class="cls-1" d="M22.75,20.47a.52.52,0,0,0,.72-.15A8,8,0,1,0,16.74,24a7.88,7.88,0,0,0,2.5-.4.52.52,0,0,0,.33-.65.53.53,0,0,0-.66-.33,6.94,6.94,0,1,1,3.69-2.85A.51.51,0,0,0,22.75,20.47Z"/><path class="cls-2" d="M21.66,20.79a6.87,6.87,0,0,1-1.4,1.13.51.51,0,0,0-.17.71.52.52,0,0,0,.44.25.53.53,0,0,0,.27-.08,7.67,7.67,0,0,0,1.6-1.29.53.53,0,0,0,0-.74A.52.52,0,0,0,21.66,20.79Z"/><path class="cls-3" d="M3.89,10.08a.52.52,0,0,0,.52-.52V5.35a.52.52,0,0,0-.52-.52.52.52,0,0,0-.52.52V9.56A.52.52,0,0,0,3.89,10.08Z"/><path class="cls-4" d="M5.92,10.08a.52.52,0,0,0,.52-.52V5.35a.52.52,0,0,0-.52-.52.52.52,0,0,0-.52.52V9.56A.52.52,0,0,0,5.92,10.08Z"/><path class="cls-5" d="M30.29,4.84a1.13,1.13,0,0,0-1-.16c-.5.16-1.1.7-1.78,3.59-.13.53-.25,1.12-.37,1.77A12,12,0,0,0,16.74,4c-.41,0-.83,0-1.24.06a.52.52,0,0,0-.46.57.51.51,0,0,0,.57.46,10.55,10.55,0,0,1,1.13-.06,10.94,10.94,0,0,1,10.09,6.69h0c-.22,1.35-.42,2.87-.62,4.57a1.13,1.13,0,0,0,.28.86,1,1,0,0,0,.54.31v2.37a.56.56,0,0,0-.1.15,10.88,10.88,0,0,1-10.19,7A11,11,0,0,1,6.85,20.7a.86.86,0,0,0-.07-.1V13.23a3.63,3.63,0,0,0,1.8-3.13V8.71A11,11,0,0,1,12.7,5.83a8.22,8.22,0,0,1,1.09-.37.52.52,0,0,0,.36-.64.51.51,0,0,0-.64-.36c-.4.11-.81.25-1.2.4A12.22,12.22,0,0,0,8.58,7.24V5.35a.52.52,0,1,0-1,0V10.1a2.62,2.62,0,0,1-5.23,0V5.35a.52.52,0,1,0-1,0V10.1a3.63,3.63,0,0,0,1.8,3.13V25.45a1.85,1.85,0,0,0,3.69,0v-2.8a12.1,12.1,0,0,0,3.48,3.43,12,12,0,0,0,13.3-.23A11.84,11.84,0,0,0,27,22.13v3.32a1.84,1.84,0,0,0,3.68,0V5.69A1,1,0,0,0,30.29,4.84ZM4.93,26.26a.8.8,0,0,1-.8-.81V13.65a3.58,3.58,0,0,0,.8.1,3.59,3.59,0,0,0,.81-.1v11.8A.81.81,0,0,1,4.93,26.26ZM29.59,5.67h.09V16.43a.08.08,0,0,1-.07.08H27.3s0,0,0,0a.14.14,0,0,1,0-.06C28.38,6.54,29.51,5.72,29.59,5.67Zm-.72,20.59a.81.81,0,0,1-.81-.81V17.54h1.62v7.92A.81.81,0,0,1,28.87,26.26Z"/></svg>