<svg id="Capa_1" data-name="Capa 1" xmlns="http://www.w3.org/2000/svg" xmlns:xlink="http://www.w3.org/1999/xlink" viewBox="0 0 32 32"><defs><style>.cls-1{fill:url(#departure);}</style><linearGradient id="departure" x1="16" y1="28.93" x2="16" y2="4.3" gradientUnits="userSpaceOnUse"><stop offset="0" stop-color="#ec7f3a"/><stop offset="0" stop-color="#eb7d3b"/><stop offset="1" stop-color="#d82f43"/></linearGradient></defs><path d="M1.85,16.58a.5.5,0,0,0,.5-.5V14.34a.5.5,0,1,0-1,0v1.74A.49.49,0,0,0,1.85,16.58Z"/><path d="M26.8,7.24H23V6.35A3.34,3.34,0,0,0,19.65,3H12.39A3.34,3.34,0,0,0,9.05,6.35v.89H5.2a3.84,3.84,0,0,0-3.84,3.84v1.33a.5.5,0,1,0,1,0V11.08A2.85,2.85,0,0,1,5.2,8.24H26.8a2.85,2.85,0,0,1,2.85,2.84v8.53a.5.5,0,1,0,1,0V11.08A3.84,3.84,0,0,0,26.8,7.24Zm-7.4-.12H12.64V7a1.1,1.1,0,0,1,1.1-1.1H18.3A1.1,1.1,0,0,1,19.4,7Zm-9.35-.77A2.35,2.35,0,0,1,12.39,4h7.26A2.35,2.35,0,0,1,22,6.35v.77H20.4V7a2.1,2.1,0,0,0-2.1-2.1H13.74A2.1,2.1,0,0,0,11.64,7v.12H10.05Z"/><path d="M30.15,21.62a.5.5,0,0,0-.5.5v3A2.85,2.85,0,0,1,26.8,28H5.2a2.84,2.84,0,0,1-2-.83,2.92,2.92,0,0,1-.84-2v-7a.5.5,0,0,0-1,0v7a3.89,3.89,0,0,0,1.12,2.71A3.8,3.8,0,0,0,5.2,29H26.8a3.84,3.84,0,0,0,3.84-3.83v-3A.49.49,0,0,0,30.15,21.62Z"/><path d="M17.92,12.23H14.09a.49.49,0,0,0-.5.49v3h-3a.51.51,0,0,0-.5.5v3.84a.51.51,0,0,0,.5.5h3v3a.5.5,0,0,0,.5.5h3.83a.5.5,0,0,0,.5-.5v-3h3a.5.5,0,0,0,.5-.5V16.23a.5.5,0,0,0-.5-.5h-3v-3A.49.49,0,0,0,17.92,12.23Zm3,4.5v2.84h-3a.49.49,0,0,0-.49.5v3H14.59v-3a.5.5,0,0,0-.5-.5h-3V16.73h3a.5.5,0,0,0,.5-.5v-3h2.84v3a.49.49,0,0,0,.49.5Z"/><path class="cls-1" d="M1.85,16.58a.5.5,0,0,0,.5-.5V14.34a.5.5,0,1,0-1,0v1.74A.49.49,0,0,0,1.85,16.58Z"/><path class="cls-1" d="M26.8,7.24H23V6.35A3.34,3.34,0,0,0,19.65,3H12.39A3.34,3.34,0,0,0,9.05,6.35v.89H5.2a3.84,3.84,0,0,0-3.84,3.84v1.33a.5.5,0,1,0,1,0V11.08A2.85,2.85,0,0,1,5.2,8.24H26.8a2.85,2.85,0,0,1,2.85,2.84v8.53a.5.5,0,1,0,1,0V11.08A3.84,3.84,0,0,0,26.8,7.24Zm-7.4-.12H12.64V7a1.1,1.1,0,0,1,1.1-1.1H18.3A1.1,1.1,0,0,1,19.4,7Zm-9.35-.77A2.35,2.35,0,0,1,12.39,4h7.26A2.35,2.35,0,0,1,22,6.35v.77H20.4V7a2.1,2.1,0,0,0-2.1-2.1H13.74A2.1,2.1,0,0,0,11.64,7v.12H10.05Z"/><path class="cls-1" d="M30.15,21.62a.5.5,0,0,0-.5.5v3A2.85,2.85,0,0,1,26.8,28H5.2a2.84,2.84,0,0,1-2-.83,2.92,2.92,0,0,1-.84-2v-7a.5.5,0,0,0-1,0v7a3.89,3.89,0,0,0,1.12,2.71A3.8,3.8,0,0,0,5.2,29H26.8a3.84,3.84,0,0,0,3.84-3.83v-3A.49.49,0,0,0,30.15,21.62Z"/><path class="cls-1" d="M17.92,12.23H14.09a.49.49,0,0,0-.5.49v3h-3a.51.51,0,0,0-.5.5v3.84a.51.51,0,0,0,.5.5h3v3a.5.5,0,0,0,.5.5h3.83a.5.5,0,0,0,.5-.5v-3h3a.5.5,0,0,0,.5-.5V16.23a.5.5,0,0,0-.5-.5h-3v-3A.49.49,0,0,0,17.92,12.23Zm3,4.5v2.84h-3a.49.49,0,0,0-.49.5v3H14.59v-3a.5.5,0,0,0-.5-.5h-3V16.73h3a.5.5,0,0,0,.5-.5v-3h2.84v3a.49.49,0,0,0,.49.5Z"/></svg>