<svg id="Capa_1" data-name="Capa 1" xmlns="http://www.w3.org/2000/svg" xmlns:xlink="http://www.w3.org/1999/xlink" viewBox="0 0 32 32"><defs><style>.cls-1{fill:#242020;}.cls-2{fill:url(#departure);}</style><linearGradient id="departure" x1="16" y1="28.89" x2="16" y2="0.03" gradientUnits="userSpaceOnUse"><stop offset="0" stop-color="#ec7f3a"/><stop offset="0" stop-color="#eb7d3b"/><stop offset="1" stop-color="#d82f43"/></linearGradient></defs><path class="cls-1" d="M25.92,19.93a4.51,4.51,0,0,0-6.36.32l-.87,1a4.27,4.27,0,0,0-.77,1.19l-.05.1-.1-.05a16.31,16.31,0,0,1-8-7.29l0-.11L9.85,15a4.45,4.45,0,0,0,1.59-1.13l.86-1A4.51,4.51,0,0,0,12,6.55L10.53,5.23a4.5,4.5,0,0,0-6.37.32l-.86,1A4.78,4.78,0,0,0,3,6.92H3A5.33,5.33,0,0,0,1.7,11.88,22.83,22.83,0,0,0,22,30.24l.65,0a5.87,5.87,0,0,0,3.08-.81,4.31,4.31,0,0,0,1.1-.88l.87-1a4.52,4.52,0,0,0-.32-6.37Zm1,7-.86.95a3.62,3.62,0,0,1-.86.69,4.85,4.85,0,0,1-2.54.66l-.55,0A21.79,21.79,0,0,1,2.74,11.68a4.35,4.35,0,0,1,.94-4l0,0,0,0,0-.06a3.1,3.1,0,0,1,.27-.34l.87-1A3.43,3.43,0,0,1,9.82,6l1.45,1.31a3.46,3.46,0,0,1,.25,4.87l-.84.93,0,0a3.4,3.4,0,0,1-1.56,1l-.26.08a.53.53,0,0,0-.32.74l.12.25a17.26,17.26,0,0,0,9.14,8.38l.22.09a.64.64,0,0,0,.2,0,.44.44,0,0,0,.22,0,.54.54,0,0,0,.28-.31l.08-.23a3.45,3.45,0,0,1,.71-1.21l.86-1a3.45,3.45,0,0,1,4.87-.24L26.67,22A3.45,3.45,0,0,1,26.91,26.91Z"/><path class="cls-1" d="M25.51,16.68h.06a.53.53,0,0,0,.52-.47c0-.31.05-.63.05-.94a9,9,0,0,0-1.37-4.78.52.52,0,0,0-.72-.17.53.53,0,0,0-.17.72,8,8,0,0,1,1.21,4.23,7.56,7.56,0,0,1,0,.83A.53.53,0,0,0,25.51,16.68Z"/><path class="cls-1" d="M21.9,8.85a9.52,9.52,0,0,1,1.09,1,.53.53,0,0,0,.39.18.53.53,0,0,0,.39-.88A10.35,10.35,0,0,0,22.53,8a.52.52,0,0,0-.73.1A.51.51,0,0,0,21.9,8.85Z"/><path class="cls-1" d="M15.79,7.16a7.25,7.25,0,0,1,.93,0,8.53,8.53,0,0,1,2.8.47A8.09,8.09,0,0,1,20.61,8a.53.53,0,0,0,.24.06.52.52,0,0,0,.46-.29.51.51,0,0,0-.22-.7,9.31,9.31,0,0,0-1.22-.52,9.6,9.6,0,0,0-3.15-.53,8.94,8.94,0,0,0-1,.06.51.51,0,0,0-.46.57A.52.52,0,0,0,15.79,7.16Z"/><path class="cls-1" d="M21.2,16.75h.05a.51.51,0,0,0,.52-.47,5.07,5.07,0,0,0,0-.55c0-.21,0-.41,0-.62a.53.53,0,0,0-.58-.46.52.52,0,0,0-.46.58,4.19,4.19,0,0,1,0,.5,3.15,3.15,0,0,1,0,.44A.53.53,0,0,0,21.2,16.75Z"/><path class="cls-1" d="M15.79,11.4a4,4,0,0,1,.49,0,4.49,4.49,0,0,1,4,2.33.48.48,0,0,0,.46.27.57.57,0,0,0,.25-.06.52.52,0,0,0,.21-.71,5.52,5.52,0,0,0-4.89-2.88l-.6,0a.52.52,0,1,0,.11,1Z"/><path class="cls-1" d="M23.72,3.2a.52.52,0,0,0-.71.22.53.53,0,0,0,.22.7,11.34,11.34,0,0,1,6.15,10,11.12,11.12,0,0,1-.06,1.16.53.53,0,0,0,.47.58h.05a.52.52,0,0,0,.52-.47c0-.42.07-.85.07-1.27A12.37,12.37,0,0,0,23.72,3.2Z"/><path class="cls-1" d="M16.42,2.84c.43,0,.86-.07,1.3-.07a11.73,11.73,0,0,1,3.54.54l.16,0a.52.52,0,0,0,.15-1,12.83,12.83,0,0,0-3.85-.58,13.18,13.18,0,0,0-1.41.07.52.52,0,0,0,.11,1Z"/><path class="cls-2" d="M25.92,19.93a4.51,4.51,0,0,0-6.36.32l-.87,1a4.27,4.27,0,0,0-.77,1.19l-.05.1-.1-.05a16.31,16.31,0,0,1-8-7.29l0-.11L9.85,15a4.45,4.45,0,0,0,1.59-1.13l.86-1A4.51,4.51,0,0,0,12,6.55L10.53,5.23a4.5,4.5,0,0,0-6.37.32l-.86,1A4.78,4.78,0,0,0,3,6.92H3A5.33,5.33,0,0,0,1.7,11.88,22.83,22.83,0,0,0,22,30.24l.65,0a5.87,5.87,0,0,0,3.08-.81,4.31,4.31,0,0,0,1.1-.88l.87-1a4.52,4.52,0,0,0-.32-6.37Zm1,7-.86.95a3.62,3.62,0,0,1-.86.69,4.85,4.85,0,0,1-2.54.66l-.55,0A21.79,21.79,0,0,1,2.74,11.68a4.35,4.35,0,0,1,.94-4l0,0,0,0,0-.06a3.1,3.1,0,0,1,.27-.34l.87-1A3.43,3.43,0,0,1,9.82,6l1.45,1.31a3.46,3.46,0,0,1,.25,4.87l-.84.93,0,0a3.4,3.4,0,0,1-1.56,1l-.26.08a.53.53,0,0,0-.32.74l.12.25a17.26,17.26,0,0,0,9.14,8.38l.22.09a.64.64,0,0,0,.2,0,.44.44,0,0,0,.22,0,.54.54,0,0,0,.28-.31l.08-.23a3.45,3.45,0,0,1,.71-1.21l.86-1a3.45,3.45,0,0,1,4.87-.24L26.67,22A3.45,3.45,0,0,1,26.91,26.91Z"/><path class="cls-2" d="M25.51,16.68h.06a.53.53,0,0,0,.52-.47c0-.31.05-.63.05-.94a9,9,0,0,0-1.37-4.78.52.52,0,0,0-.72-.17.53.53,0,0,0-.17.72,8,8,0,0,1,1.21,4.23,7.56,7.56,0,0,1,0,.83A.53.53,0,0,0,25.51,16.68Z"/><path class="cls-2" d="M21.9,8.85a9.52,9.52,0,0,1,1.09,1,.53.53,0,0,0,.39.18.53.53,0,0,0,.39-.88A10.35,10.35,0,0,0,22.53,8a.52.52,0,0,0-.73.1A.51.51,0,0,0,21.9,8.85Z"/><path class="cls-2" d="M15.79,7.16a7.25,7.25,0,0,1,.93,0,8.53,8.53,0,0,1,2.8.47A8.09,8.09,0,0,1,20.61,8a.53.53,0,0,0,.24.06.52.52,0,0,0,.46-.29.51.51,0,0,0-.22-.7,9.31,9.31,0,0,0-1.22-.52,9.6,9.6,0,0,0-3.15-.53,8.94,8.94,0,0,0-1,.06.51.51,0,0,0-.46.57A.52.52,0,0,0,15.79,7.16Z"/><path class="cls-2" d="M21.2,16.75h.05a.51.51,0,0,0,.52-.47,5.07,5.07,0,0,0,0-.55c0-.21,0-.41,0-.62a.53.53,0,0,0-.58-.46.52.52,0,0,0-.46.58,4.19,4.19,0,0,1,0,.5,3.15,3.15,0,0,1,0,.44A.53.53,0,0,0,21.2,16.75Z"/><path class="cls-2" d="M15.79,11.4a4,4,0,0,1,.49,0,4.49,4.49,0,0,1,4,2.33.48.48,0,0,0,.46.27.57.57,0,0,0,.25-.06.52.52,0,0,0,.21-.71,5.52,5.52,0,0,0-4.89-2.88l-.6,0a.52.52,0,1,0,.11,1Z"/><path class="cls-2" d="M23.72,3.2a.52.52,0,0,0-.71.22.53.53,0,0,0,.22.7,11.34,11.34,0,0,1,6.15,10,11.12,11.12,0,0,1-.06,1.16.53.53,0,0,0,.47.58h.05a.52.52,0,0,0,.52-.47c0-.42.07-.85.07-1.27A12.37,12.37,0,0,0,23.72,3.2Z"/><path class="cls-2" d="M16.42,2.84c.43,0,.86-.07,1.3-.07a11.73,11.73,0,0,1,3.54.54l.16,0a.52.52,0,0,0,.15-1,12.83,12.83,0,0,0-3.85-.58,13.18,13.18,0,0,0-1.41.07.52.52,0,0,0,.11,1Z"/></svg>