<svg id="Capa_1" data-name="Capa 1" xmlns="http://www.w3.org/2000/svg" xmlns:xlink="http://www.w3.org/1999/xlink" viewBox="0 0 32 32"><defs><style>.cls-1{fill:url(#departure);}.cls-2{fill:url(#departure-2);}.cls-3{fill:url(#departure-3);}.cls-4{fill:url(#departure-4);}.cls-5{fill:url(#departure-5);}</style><linearGradient id="departure" x1="7.13" y1="24.73" x2="7.13" y2="6.6" gradientUnits="userSpaceOnUse"><stop offset="0" stop-color="#ec7f3a"/><stop offset="0" stop-color="#eb7d3b"/><stop offset="1" stop-color="#d82f43"/></linearGradient><linearGradient id="departure-2" x1="22.26" y1="24.73" x2="22.26" y2="6.6" xlink:href="#departure"/><linearGradient id="departure-3" x1="16" y1="24.73" x2="16" y2="6.6" xlink:href="#departure"/><linearGradient id="departure-4" x1="9.75" y1="24.73" x2="9.75" y2="6.6" xlink:href="#departure"/><linearGradient id="departure-5" x1="14.98" y1="24.73" x2="14.98" y2="6.6" xlink:href="#departure"/></defs><path class="cls-1" d="M7.13,23.57a1.34,1.34,0,1,0-1.34-1.33A1.34,1.34,0,0,0,7.13,23.57Zm0-1.92a.59.59,0,0,1,0,1.17.59.59,0,1,1,0-1.17Z"/><path class="cls-2" d="M22.26,20.9a1.34,1.34,0,1,0,1.34,1.34A1.34,1.34,0,0,0,22.26,20.9Zm0,1.92a.59.59,0,1,1,.59-.58A.58.58,0,0,1,22.26,22.82Z"/><path class="cls-3" d="M30.81,13.6l-2-1.61a5.29,5.29,0,0,0-1.44-3.82,5.42,5.42,0,0,0-4-1.38c-5.44.09-21.73,0-21.89,0h0a.58.58,0,0,0-.37.15A.58.58,0,0,0,1,7.32V22.24a.52.52,0,0,0,.52.52H4.2a3,3,0,0,0,5.85,0h5.68a.52.52,0,0,0,.53-.52.53.53,0,0,0-.53-.53H10.05a3,3,0,0,0-5.85,0H2.05V17.94H6.69a.53.53,0,0,0,.53-.53.52.52,0,0,0-.53-.52H2.05v-9c2.86,0,16.5.08,21.39,0a4.43,4.43,0,0,1,3.21,1.08,4.46,4.46,0,0,1,1.13,3.32.53.53,0,0,0,.19.41l2,1.61v2.63H12.81a.52.52,0,0,0-.52.52.52.52,0,0,0,.52.53H30v3.77H25.19a3,3,0,0,0-5.85,0H17.79a.53.53,0,0,0-.53.53.52.52,0,0,0,.53.52h1.55a3,3,0,0,0,5.85,0h5.29a.52.52,0,0,0,.52-.52V14A.53.53,0,0,0,30.81,13.6ZM7.13,20.31A1.93,1.93,0,1,1,5.2,22.24,1.93,1.93,0,0,1,7.13,20.31Zm15.13,3.85a1.93,1.93,0,1,1,1.93-1.92A1.92,1.92,0,0,1,22.26,24.16Z"/><path class="cls-4" d="M8.63,16.89a.52.52,0,0,0-.52.52.52.52,0,0,0,.52.53h2.23a.53.53,0,0,0,.53-.53.52.52,0,0,0-.53-.52Z"/><path class="cls-5" d="M24.78,15.27a1,1,0,0,0,1-1V12.1a2.54,2.54,0,0,0-2.53-2.54H5.19a1,1,0,0,0-1,1v3.65a1,1,0,0,0,1,1Zm0-3.17v2.12H17V10.61h6.24A1.49,1.49,0,0,1,24.77,12.1ZM16,14.22H10.1V10.61H16ZM5.2,10.61H9.05v3.61H5.2Z"/></svg>