<svg id="Capa_1" data-name="Capa 1" xmlns="http://www.w3.org/2000/svg" xmlns:xlink="http://www.w3.org/1999/xlink" viewBox="0 0 32 32"><defs><style>.cls-1{fill:url(#departure);}.cls-2{fill:url(#departure-2);}</style><linearGradient id="departure" x1="16" y1="30.75" x2="16" y2="0.79" gradientUnits="userSpaceOnUse"><stop offset="0" stop-color="#ec7f3a"/><stop offset="0" stop-color="#eb7d3b"/><stop offset="1" stop-color="#d82f43"/></linearGradient><linearGradient id="departure-2" x1="14.29" y1="30.75" x2="14.29" y2="0.79" xlink:href="#departure"/></defs><path class="cls-1" d="M24.05,9.92a.54.54,0,0,0-.72-.2.52.52,0,0,0-.2.72,25.65,25.65,0,0,1,3.36,11.23H16V3.33a8.39,8.39,0,0,1,4.25,2.94c.27.3.55.63.81,1s.45.59.67.9l.3.44a.51.51,0,0,0,.44.24.55.55,0,0,0,.3-.09A.53.53,0,0,0,22.87,8c-.1-.16-.21-.32-.32-.47-.23-.32-.46-.64-.69-.94s-.57-.7-.86-1c-1.95-2.18-3.88-3.33-5.57-3.33H13v-.7a.53.53,0,1,0-1.05,0v22.9H5a.56.56,0,0,0-.47.28.54.54,0,0,0,0,.55l3.88,5.52a.54.54,0,0,0,.44.22h13a.54.54,0,0,0,.44-.23L26,25.25a.52.52,0,0,0,0-.54.53.53,0,0,0-.47-.28H13v-1.7H27a.53.53,0,0,0,.53-.53A26.33,26.33,0,0,0,24.05,9.92Zm.56,15.57-.8,1.18H17.16a.49.49,0,0,0,0,1h6L21.6,29.94H9.13L7.52,27.65h3.77a.49.49,0,0,0,0-1H6.83L6,25.49ZM14.9,21.67H13V3.28h1.9Z"/><path class="cls-2" d="M13.19,27.65H15.4a.49.49,0,0,0,0-1H13.19a.49.49,0,0,0,0,1Z"/></svg>