<svg id="Capa_1" data-name="Capa 1" xmlns="http://www.w3.org/2000/svg" xmlns:xlink="http://www.w3.org/1999/xlink" viewBox="0 0 32 32"><defs><style>.cls-1{fill:url(#departure);}.cls-2{fill:url(#departure-2);}.cls-3{fill:url(#departure-3);}.cls-4{fill:url(#departure-4);}</style><linearGradient id="departure" x1="16.08" y1="31.91" x2="15.97" y2="1.03" gradientUnits="userSpaceOnUse"><stop offset="0" stop-color="#ec7f3a"/><stop offset="0" stop-color="#eb7d3b"/><stop offset="1" stop-color="#d82f43"/></linearGradient><linearGradient id="departure-2" x1="9.31" y1="31.93" x2="9.2" y2="1.05" xlink:href="#departure"/><linearGradient id="departure-3" x1="16.08" y1="31.91" x2="15.97" y2="1.03" xlink:href="#departure"/><linearGradient id="departure-4" x1="15.62" y1="31.91" x2="15.5" y2="1.03" xlink:href="#departure"/></defs><path class="cls-1" d="M19,13.64a4.57,4.57,0,0,0,.68-.71,4.52,4.52,0,0,0,.56-.88,4.79,4.79,0,0,0,.48-2.11A4.73,4.73,0,1,0,19,13.64Zm-6.63-3.7a3.65,3.65,0,1,1,7.3,0,3.77,3.77,0,0,1-.38,1.65,4.17,4.17,0,0,1-.43.69,4,4,0,0,1-.54.55,3.62,3.62,0,0,1-2.3.83A3.69,3.69,0,0,1,12.35,9.94Z"/><path class="cls-2" d="M10.1,16.75c-.27-.55-.51-1.08-.72-1.57a.53.53,0,1,0-1,.42c.22.5.47,1,.73,1.6a.53.53,0,0,0,.48.3.48.48,0,0,0,.23-.05A.53.53,0,0,0,10.1,16.75Z"/><path class="cls-3" d="M22.33,3.63A8.9,8.9,0,0,0,16,1h0a9.2,9.2,0,0,0-9,9.3v.28a9.5,9.5,0,0,0,.68,3.05l.15.42a.53.53,0,0,0,1-.37l-.15-.4A8.77,8.77,0,0,1,8,10.58V10.3a8.13,8.13,0,0,1,8-8.24h0a7.88,7.88,0,0,1,5.59,2.32A8.14,8.14,0,0,1,24,10.2v.38c0,.92-.45,2.93-2.61,7.24a.52.52,0,0,0,.24.7.46.46,0,0,0,.23.06.52.52,0,0,0,.47-.29c1.81-3.61,2.73-6.2,2.73-7.71V10.2A9.21,9.21,0,0,0,22.33,3.63Z"/><path class="cls-4" d="M20.93,19.84a.52.52,0,0,0-.71.21c-1.32,2.45-2.7,4.77-3.62,6.27l-.6,0-.6,0c-.48-.79-1.09-1.8-1.75-2.94l-.44-.76c-.85-1.5-1.62-2.91-2.28-4.19a.53.53,0,0,0-.94.48c.67,1.3,1.44,2.72,2.3,4.23l.44.77c.56.95,1.08,1.82,1.52,2.55-1.66.3-3,1.05-3,2.19C11.23,30.18,13.69,31,16,31s4.77-.82,4.77-2.35c0-1.14-1.36-1.89-3-2.19.92-1.51,2.18-3.66,3.4-5.91A.53.53,0,0,0,20.93,19.84Zm-1.21,8.81c0,.52-1.49,1.29-3.72,1.29s-3.72-.77-3.72-1.29,1-1,2.56-1.22c.44.71.71,1.13.72,1.14a.52.52,0,0,0,.88,0s.28-.43.72-1.14C18.73,27.63,19.72,28.23,19.72,28.65Z"/></svg>