<?xml version="1.0" encoding="utf-8"?>
<!-- Generator: Adobe Illustrator 23.0.2, SVG Export Plug-In . SVG Version: 6.00 Build 0)  -->
<svg version="1.1" id="Capa_1" xmlns="http://www.w3.org/2000/svg" xmlns:xlink="http://www.w3.org/1999/xlink" x="0px" y="0px"
	 viewBox="0 0 32 32" style="enable-background:new 0 0 32 32;" xml:space="preserve">
<style type="text/css">
	.st0{fill:url(#SVGID_1_);}
	.st1{fill:url(#SVGID_2_);}
	.st2{fill:url(#SVGID_3_);}
	.st3{fill:url(#SVGID_4_);}
	.st4{fill:url(#SVGID_5_);}
	.st5{fill:url(#SVGID_6_);}
	.st6{fill:url(#SVGID_7_);}
	.st7{fill:url(#SVGID_8_);}
	.st8{fill:url(#SVGID_9_);}
	.st9{fill:url(#SVGID_10_);}
	.st10{fill:url(#SVGID_11_);}
	.st11{fill:url(#SVGID_12_);}
	.st12{fill:url(#SVGID_13_);}
	.st13{fill:url(#SVGID_14_);}
	.st14{fill:url(#SVGID_15_);}
</style>
<title>iconos de viajes propios</title>
<g>
	
		<linearGradient id="SVGID_1_" gradientUnits="userSpaceOnUse" x1="1.5" y1="-809.8802" x2="1.5" y2="-789.3903" gradientTransform="matrix(1 0 0 -1 0 -778.1102)">
		<stop  offset="0" style="stop-color:#D37E40"/>
		<stop  offset="0" style="stop-color:#D27B41"/>
		<stop  offset="1" style="stop-color:#BA3244"/>
	</linearGradient>
	<path class="st0" d="M1.5,24.1c0.3,0,0.5-0.2,0.5-0.5l0,0v-4.1c-0.1-0.3-0.4-0.4-0.7-0.3C1.1,19.3,1,19.4,1,19.5v4.1
		C1,23.9,1.2,24.1,1.5,24.1z"/>
	
		<linearGradient id="SVGID_2_" gradientUnits="userSpaceOnUse" x1="20.85" y1="-809.8802" x2="20.85" y2="-789.3903" gradientTransform="matrix(1 0 0 -1 0 -778.1102)">
		<stop  offset="0" style="stop-color:#D37E40"/>
		<stop  offset="0" style="stop-color:#D27B41"/>
		<stop  offset="1" style="stop-color:#BA3244"/>
	</linearGradient>
	<path class="st1" d="M20.8,14.3c-0.3,0-0.5,0.2-0.5,0.5l0,0V16c0,0.3,0.3,0.5,0.6,0.5c0.2,0,0.4-0.2,0.5-0.5v-1.2
		C21.3,14.5,21.1,14.3,20.8,14.3z"/>
	
		<linearGradient id="SVGID_3_" gradientUnits="userSpaceOnUse" x1="16" y1="-809.8802" x2="16" y2="-789.3903" gradientTransform="matrix(1 0 0 -1 0 -778.1102)">
		<stop  offset="0" style="stop-color:#D37E40"/>
		<stop  offset="0" style="stop-color:#D27B41"/>
		<stop  offset="1" style="stop-color:#BA3244"/>
	</linearGradient>
	<path class="st2" d="M30.4,19.5h-9.1v-2.1c0-0.3-0.3-0.5-0.6-0.5c-0.2,0-0.4,0.2-0.5,0.5v13.5h-2.6v-4.6c0-0.2-0.2-0.4-0.4-0.4l0,0
		h-2.7c-0.2,0-0.4,0.2-0.4,0.4l0,0v4.6h-2.6V12.3h8.6v1.1c0,0.3,0.3,0.5,0.6,0.5c0.2,0,0.4-0.2,0.5-0.5v-1.7c0-0.3-0.2-0.5-0.5-0.5
		l0,0h-9.6c-0.3,0-0.5,0.2-0.5,0.5l0,0v3H1.5c-0.3,0-0.5,0.2-0.5,0.5l0,0v2.5C1.1,18,1.4,18.1,1.7,18c0.1,0.2,0.2,0,0.3-0.1v-2h8.6
		V31H8v-4.6C8,26.2,7.9,26,7.7,26l0,0H5c-0.2,0-0.4,0.2-0.4,0.4l0,0V31H2v-5.6c0.1-0.3,0-0.6-0.3-0.7S1.1,24.7,1,25
		c0,0.1,0,0.2,0,0.4v6.1C1,31.8,1.2,32,1.5,32l0,0h29c0.3,0,0.5-0.2,0.5-0.5l0,0V20C31,19.7,30.8,19.5,30.4,19.5
		C30.5,19.5,30.5,19.5,30.4,19.5z M7.3,30.9h-2v-4.2h1.9L7.3,30.9L7.3,30.9z M16.9,30.9h-2v-4.2h2V30.9z M26.5,30.9h-1.9v-4.2h1.9
		V30.9z M29.9,30.9h-2.6v-4.6c0-0.2-0.2-0.4-0.4-0.4l0,0h-2.7c-0.2,0-0.4,0.2-0.4,0.4l0,0v4.6h-2.5V20.6H30L29.9,30.9z"/>
	
		<linearGradient id="SVGID_4_" gradientUnits="userSpaceOnUse" x1="4.55" y1="-809.8802" x2="4.55" y2="-789.3903" gradientTransform="matrix(1 0 0 -1 0 -778.1102)">
		<stop  offset="0" style="stop-color:#D37E40"/>
		<stop  offset="0" style="stop-color:#D27B41"/>
		<stop  offset="1" style="stop-color:#BA3244"/>
	</linearGradient>
	<path class="st3" d="M3.5,20.8h2.1c0.2,0,0.4-0.1,0.4-0.3c0,0,0,0,0-0.1v-2.1C6,18.2,5.8,18,5.6,18l0,0H3.5c-0.2,0-0.4,0.2-0.4,0.4
		v2.1C3.1,20.7,3.3,20.8,3.5,20.8z M3.8,18.8h1.3v1.3H3.8V18.8z"/>
	
		<linearGradient id="SVGID_5_" gradientUnits="userSpaceOnUse" x1="8.05" y1="-809.8802" x2="8.05" y2="-789.3903" gradientTransform="matrix(1 0 0 -1 0 -778.1102)">
		<stop  offset="0" style="stop-color:#D37E40"/>
		<stop  offset="0" style="stop-color:#D27B41"/>
		<stop  offset="1" style="stop-color:#BA3244"/>
	</linearGradient>
	<path class="st4" d="M7,20.8h2.1c0.2,0,0.4-0.2,0.4-0.4v-2.1c0-0.2-0.2-0.4-0.4-0.4H7c-0.2,0-0.4,0.2-0.4,0.4l0,0v2.1
		C6.6,20.7,6.8,20.8,7,20.8z M7.4,18.8h1.3v1.3H7.4V18.8z"/>
	
		<linearGradient id="SVGID_6_" gradientUnits="userSpaceOnUse" x1="4.55" y1="-809.8802" x2="4.55" y2="-789.3903" gradientTransform="matrix(1 0 0 -1 0 -778.1102)">
		<stop  offset="0" style="stop-color:#D37E40"/>
		<stop  offset="0" style="stop-color:#D27B41"/>
		<stop  offset="1" style="stop-color:#BA3244"/>
	</linearGradient>
	<path class="st5" d="M3.1,23.9c0,0.2,0.2,0.4,0.4,0.4h2.1C5.8,24.3,6,24.2,6,24c0,0,0,0,0-0.1v-2.1c0-0.2-0.2-0.4-0.3-0.4l0,0H3.5
		c-0.2,0-0.4,0.2-0.4,0.4V23.9z M3.8,22.2h1.3v1.3H3.8V22.2z"/>
	
		<linearGradient id="SVGID_7_" gradientUnits="userSpaceOnUse" x1="8.05" y1="-809.8802" x2="8.05" y2="-789.3903" gradientTransform="matrix(1 0 0 -1 0 -778.1102)">
		<stop  offset="0" style="stop-color:#D37E40"/>
		<stop  offset="0" style="stop-color:#D27B41"/>
		<stop  offset="1" style="stop-color:#BA3244"/>
	</linearGradient>
	<path class="st6" d="M6.6,23.9c0,0.2,0.2,0.4,0.4,0.4h2.1c0.2,0,0.4-0.2,0.4-0.4v-2.1c0-0.2-0.2-0.4-0.4-0.4H7
		c-0.2,0-0.4,0.2-0.4,0.4l0,0V23.9z M7.4,22.2h1.3v1.3H7.4V22.2z"/>
	
		<linearGradient id="SVGID_8_" gradientUnits="userSpaceOnUse" x1="23.75" y1="-809.8802" x2="23.75" y2="-789.3903" gradientTransform="matrix(1 0 0 -1 0 -778.1102)">
		<stop  offset="0" style="stop-color:#D37E40"/>
		<stop  offset="0" style="stop-color:#D27B41"/>
		<stop  offset="1" style="stop-color:#BA3244"/>
	</linearGradient>
	<path class="st7" d="M22.7,24.3h2.1c0.2,0,0.4-0.2,0.4-0.4v-2.1c0-0.2-0.2-0.4-0.4-0.4l0,0h-2.1c-0.2,0-0.4,0.2-0.4,0.4l0,0v2.1
		C22.4,24.1,22.5,24.2,22.7,24.3z M23.1,22.2h1.3v1.3h-1.3V22.2z"/>
	
		<linearGradient id="SVGID_9_" gradientUnits="userSpaceOnUse" x1="27.35" y1="-809.8802" x2="27.35" y2="-789.3903" gradientTransform="matrix(1 0 0 -1 0 -778.1102)">
		<stop  offset="0" style="stop-color:#D37E40"/>
		<stop  offset="0" style="stop-color:#D27B41"/>
		<stop  offset="1" style="stop-color:#BA3244"/>
	</linearGradient>
	<path class="st8" d="M26.3,24.3h2.1c0.2,0,0.4-0.2,0.4-0.4v-2.1c0-0.2-0.2-0.4-0.4-0.4l0,0h-2.1c-0.2,0-0.4,0.2-0.4,0.4l0,0v2.1
		C25.9,24.1,26.1,24.3,26.3,24.3z M26.7,22.2H28v1.3h-1.3V22.2z"/>
	
		<linearGradient id="SVGID_10_" gradientUnits="userSpaceOnUse" x1="14.25" y1="-809.8802" x2="14.25" y2="-789.3903" gradientTransform="matrix(1 0 0 -1 0 -778.1102)">
		<stop  offset="0" style="stop-color:#D37E40"/>
		<stop  offset="0" style="stop-color:#D27B41"/>
		<stop  offset="1" style="stop-color:#BA3244"/>
	</linearGradient>
	<path class="st9" d="M15.6,18.4c0-0.2-0.2-0.4-0.3-0.4l0,0h-2.1c-0.2,0-0.4,0.2-0.4,0.4v2.1c0,0.2,0.2,0.4,0.4,0.4h2.1
		c0.2,0,0.4-0.2,0.4-0.4v-2.1C15.7,18.4,15.6,18.4,15.6,18.4z M14.9,20.1h-1.3v-1.3h1.3V20.1z"/>
	
		<linearGradient id="SVGID_11_" gradientUnits="userSpaceOnUse" x1="17.75" y1="-809.8802" x2="17.75" y2="-789.3903" gradientTransform="matrix(1 0 0 -1 0 -778.1102)">
		<stop  offset="0" style="stop-color:#D37E40"/>
		<stop  offset="0" style="stop-color:#D27B41"/>
		<stop  offset="1" style="stop-color:#BA3244"/>
	</linearGradient>
	<path class="st10" d="M19.2,18.4c0-0.2-0.2-0.4-0.4-0.4l0,0h-2.1c-0.2,0-0.4,0.2-0.4,0.4l0,0v2.1c0,0.2,0.2,0.4,0.4,0.4h2.1
		c0.2,0,0.4-0.2,0.4-0.4V18.4z M18.4,20.1h-1.3v-1.3h1.3V20.1z"/>
	
		<linearGradient id="SVGID_12_" gradientUnits="userSpaceOnUse" x1="14.15" y1="-809.8802" x2="14.15" y2="-789.3903" gradientTransform="matrix(1 0 0 -1 0 -778.1102)">
		<stop  offset="0" style="stop-color:#D37E40"/>
		<stop  offset="0" style="stop-color:#D27B41"/>
		<stop  offset="1" style="stop-color:#BA3244"/>
	</linearGradient>
	<path class="st11" d="M15.2,21.4h-2.1c-0.2,0-0.4,0.2-0.4,0.4v2.1c0,0.2,0.2,0.4,0.4,0.4h2.1c0.2,0,0.4-0.2,0.4-0.4l0,0v-2.1
		C15.6,21.6,15.5,21.4,15.2,21.4C15.3,21.4,15.3,21.4,15.2,21.4z M14.9,23.5h-1.3v-1.3h1.3V23.5z"/>
	
		<linearGradient id="SVGID_13_" gradientUnits="userSpaceOnUse" x1="17.75" y1="-809.8802" x2="17.75" y2="-789.3903" gradientTransform="matrix(1 0 0 -1 0 -778.1102)">
		<stop  offset="0" style="stop-color:#D37E40"/>
		<stop  offset="0" style="stop-color:#D27B41"/>
		<stop  offset="1" style="stop-color:#BA3244"/>
	</linearGradient>
	<path class="st12" d="M18.8,21.4h-2.1c-0.2,0-0.4,0.2-0.4,0.4l0,0v2.1c0,0.2,0.2,0.4,0.4,0.4h2.1c0.2,0,0.4-0.2,0.4-0.4v-2.1
		C19.2,21.6,19,21.4,18.8,21.4L18.8,21.4z M18.4,23.5h-1.3v-1.3h1.3V23.5z"/>
	
		<linearGradient id="SVGID_14_" gradientUnits="userSpaceOnUse" x1="14.15" y1="-809.8802" x2="14.15" y2="-789.3903" gradientTransform="matrix(1 0 0 -1 0 -778.1102)">
		<stop  offset="0" style="stop-color:#D37E40"/>
		<stop  offset="0" style="stop-color:#D27B41"/>
		<stop  offset="1" style="stop-color:#BA3244"/>
	</linearGradient>
	<path class="st13" d="M15.6,15c0-0.2-0.2-0.4-0.4-0.4h-2.1c-0.2,0-0.4,0.2-0.4,0.4v2c0,0.2,0.2,0.4,0.4,0.4h2.1
		c0.2,0,0.4-0.2,0.4-0.3l0,0V15z M14.9,16.6h-1.3v-1.3h1.3V16.6z"/>
	
		<linearGradient id="SVGID_15_" gradientUnits="userSpaceOnUse" x1="17.75" y1="-809.8802" x2="17.75" y2="-789.3903" gradientTransform="matrix(1 0 0 -1 0 -778.1102)">
		<stop  offset="0" style="stop-color:#D37E40"/>
		<stop  offset="0" style="stop-color:#D27B41"/>
		<stop  offset="1" style="stop-color:#BA3244"/>
	</linearGradient>
	<path class="st14" d="M19.2,15c0-0.2-0.2-0.4-0.4-0.4h-2.1c-0.2,0-0.4,0.2-0.4,0.4v2c0,0.2,0.2,0.4,0.4,0.4l0,0h2.1
		c0.2,0,0.4-0.2,0.4-0.4l0,0C19.2,17,19.2,15,19.2,15z M18.4,16.6h-1.3v-1.3h1.3V16.6z"/>
</g>
</svg>
