<svg id="Capa_1" data-name="Capa 1" xmlns="http://www.w3.org/2000/svg" viewBox="0 0 30 30"><defs><style>.cls-1{fill:#040006;}</style></defs><title>iconos de viajes propios</title><path class="cls-1" d="M8,14.16H7.09a.56.56,0,0,0-.56.56.57.57,0,0,0,.56.57H8a.57.57,0,0,0,.56-.57A.56.56,0,0,0,8,14.16Z"/><path class="cls-1" d="M3.86,16.17a.56.56,0,0,0-.56.56v2a.56.56,0,0,0,1.12,0v-2A.56.56,0,0,0,3.86,16.17Z"/><path class="cls-1" d="M3.86,19.73a.56.56,0,0,0-.56.56v.3a.56.56,0,0,0,1.12,0v-.3A.56.56,0,0,0,3.86,19.73Z"/><path class="cls-1" d="M7.69,20.69a.57.57,0,0,0-.57.56v.91a.57.57,0,0,0,.57.56.56.56,0,0,0,.56-.56v-.91A.56.56,0,0,0,7.69,20.69Z"/><path class="cls-1" d="M7.69,16.21a.57.57,0,0,0-.57.56v2.85a.58.58,0,0,0,.57.57.57.57,0,0,0,.56-.57V16.77A.56.56,0,0,0,7.69,16.21Z"/><path class="cls-1" d="M23.78,11.8l.38.12.17,0a.58.58,0,0,0,.54-.4.56.56,0,0,0-.37-.7l-.38-.12a.55.55,0,0,0-.7.36A.56.56,0,0,0,23.78,11.8Z"/><path class="cls-1" d="M29.59,12.32l-3.49-1a.56.56,0,1,0-.31,1.08l3.09.88v.87H17.71l.39-4,4.12,1.18a.39.39,0,0,0,.15,0,.56.56,0,0,0,.54-.4.57.57,0,0,0-.39-.7L18.21,9l.2-2a5.13,5.13,0,0,0-1.16-3.89,3.05,3.05,0,0,0-2.22-1,3,3,0,0,0-2.22,1A5.1,5.1,0,0,0,11.64,7l.2,2L.41,12.32a.57.57,0,0,0-.41.54v1.86a.57.57,0,0,0,.56.57H5.42A.57.57,0,0,0,6,14.72a.56.56,0,0,0-.56-.56H1.12v-.88L12,10.16l.39,4H9.66a.56.56,0,0,0-.56.56.57.57,0,0,0,.56.57h2.79l.64,6.52L9,24.23a.55.55,0,0,0-.27.57L9,26.48a.55.55,0,0,0,.23.38.54.54,0,0,0,.33.1h.1l3.89-.73,0,.11A1.58,1.58,0,0,0,15,27.94a1.59,1.59,0,0,0,1.49-1.61v-.1l3.85.72h.11a.53.53,0,0,0,.32-.1.55.55,0,0,0,.23-.38l.25-1.68a.59.59,0,0,0-.27-.57L17,21.83l.64-6.54H29.44a.57.57,0,0,0,.56-.57V12.86A.57.57,0,0,0,29.59,12.32ZM10,25.74,9.89,25l3.32-2,.2,2.05Zm5,1.07c-.16,0-.34-.18-.38-.59L12.76,6.9a4,4,0,0,1,.88-3,1.75,1.75,0,0,1,2.77,0,4,4,0,0,1,.88,3L15.4,26.22C15.36,26.63,15.18,26.81,15,26.81ZM20.12,25l-.11.73-3.37-.64.2-2Z"/><path class="cls-1" d="M26.14,16.17a.56.56,0,0,0-.56.56v2a.56.56,0,0,0,1.12,0v-2A.56.56,0,0,0,26.14,16.17Z"/><path class="cls-1" d="M26.14,19.73a.56.56,0,0,0-.56.56v.3a.56.56,0,0,0,1.12,0v-.3A.56.56,0,0,0,26.14,19.73Z"/><path class="cls-1" d="M22.31,20.69a.56.56,0,0,0-.56.56v.91a.56.56,0,0,0,.56.56.57.57,0,0,0,.57-.56v-.91A.57.57,0,0,0,22.31,20.69Z"/><path class="cls-1" d="M22.31,16.21a.56.56,0,0,0-.56.56v2.85a.57.57,0,0,0,.56.57.58.58,0,0,0,.57-.57V16.77A.57.57,0,0,0,22.31,16.21Z"/></svg>