<?xml version="1.0" encoding="utf-8"?>
<!-- Generator: Adobe Illustrator 23.0.2, SVG Export Plug-In . SVG Version: 6.00 Build 0)  -->
<svg version="1.1" id="Capa_1" xmlns="http://www.w3.org/2000/svg" xmlns:xlink="http://www.w3.org/1999/xlink" x="0px" y="0px"
	 viewBox="0 0 32 32" style="enable-background:new 0 0 32 32;" xml:space="preserve">
<style type="text/css">
	.st0{fill:url(#SVGID_1_);}
	.st1{fill:url(#SVGID_2_);}
</style>
<title>iconos de viajes propios</title>
<g>
	
		<linearGradient id="SVGID_1_" gradientUnits="userSpaceOnUse" x1="15.9625" y1="-809.8802" x2="15.9625" y2="-779.9202" gradientTransform="matrix(1 0 0 -1 0 -778.1102)">
		<stop  offset="0" style="stop-color:#D37E40"/>
		<stop  offset="0" style="stop-color:#D27B41"/>
		<stop  offset="1" style="stop-color:#BA3244"/>
	</linearGradient>
	<path class="st0" d="M24.1,10.9c-0.1-0.2-0.5-0.3-0.7-0.2c-0.3,0.1-0.3,0.5-0.2,0.7l0,0c2,3.4,3.1,7.3,3.4,11.2H16V4.4
		c1.7,0.5,3.2,1.5,4.3,2.9c0.3,0.3,0.5,0.6,0.8,1c0.3,0.4,0.5,0.6,0.7,0.9L22,9.7c0.1,0.2,0.3,0.2,0.4,0.2s0.2,0,0.3-0.1
		c0.3-0.1,0.4-0.5,0.2-0.7l0,0c-0.1-0.2-0.2-0.3-0.3-0.5c-0.2-0.3-0.5-0.6-0.7-0.9S21.3,7,21,6.7c-2-2.2-3.9-3.3-5.6-3.3H13V2.5
		c0-0.3-0.2-0.6-0.5-0.6s-0.6,0.2-0.6,0.5v0.1v22.9H5c-0.2,0-0.4,0.1-0.5,0.3c-0.1,0.2-0.1,0.4,0,0.5l3.9,5.5
		C8.5,31.9,8.7,32,8.9,32h13c0.2,0,0.3-0.1,0.4-0.2l3.7-5.5c0.1-0.2,0.1-0.4,0-0.5c-0.1-0.2-0.3-0.3-0.5-0.3H13v-1.7h14
		c0.3,0,0.5-0.2,0.5-0.5l0,0C27.4,18.9,26.2,14.7,24.1,10.9z M24.6,26.5l-0.8,1.2h-6.6c-0.3,0-0.5,0.2-0.5,0.5s0.2,0.5,0.5,0.5h6
		L21.6,31H9.1l-1.6-2.3h3.8c0.3,0,0.5-0.2,0.5-0.5s-0.2-0.5-0.5-0.5H6.8L6,26.5H24.6z M14.9,22.6H13V4.2h1.9V22.6z"/>
	
		<linearGradient id="SVGID_2_" gradientUnits="userSpaceOnUse" x1="14.3" y1="-809.8802" x2="14.3" y2="-779.9202" gradientTransform="matrix(1 0 0 -1 0 -778.1102)">
		<stop  offset="0" style="stop-color:#D37E40"/>
		<stop  offset="0" style="stop-color:#D27B41"/>
		<stop  offset="1" style="stop-color:#BA3244"/>
	</linearGradient>
	<path class="st1" d="M13.2,28.6h2.2c0.3,0,0.5-0.2,0.5-0.5s-0.2-0.5-0.5-0.5h-2.2c-0.3,0-0.5,0.2-0.5,0.5S12.9,28.6,13.2,28.6
		L13.2,28.6z"/>
</g>
</svg>
