<?xml version="1.0" encoding="utf-8"?>
<!-- Generator: Adobe Illustrator 23.0.2, SVG Export Plug-In . SVG Version: 6.00 Build 0)  -->
<svg version="1.1" id="Capa_1" xmlns="http://www.w3.org/2000/svg" xmlns:xlink="http://www.w3.org/1999/xlink" x="0px" y="0px"
	 viewBox="0 0 30 30" style="enable-background:new 0 0 30 30;" xml:space="preserve">
<style type="text/css">
	.st0{fill:url(#SVGID_1_);}
	.st1{fill:#FFFFFF;}
</style>
<title>redes</title>
<linearGradient id="SVGID_1_" gradientUnits="userSpaceOnUse" x1="0.2708" y1="14.8898" x2="34.939" y2="14.8898" gradientTransform="matrix(1 0 0 -1 0 29.8898)">
	<stop  offset="0" style="stop-color:#D37E40"/>
	<stop  offset="0.872" style="stop-color:#BA3244"/>
</linearGradient>
<path class="st0" d="M0.4,22V8c0-4.2,3.4-7.6,7.6-7.6h14c4.2,0,7.6,3.4,7.6,7.6v14c0,4.2-3.4,7.6-7.6,7.6h-4.7L14.8,29l-2.1,0.6H8
	C3.8,29.6,0.4,26.2,0.4,22z"/>
<path class="st1" d="M20.7,19.7l0.6-4.2h-4.1v-2.7c-0.1-1.2,0.8-2.2,1.9-2.3c0.2,0,0.3,0,0.5,0h1.8V6.9c-1.1-0.2-2.2-0.3-3.3-0.3
	c-3.3,0-5.5,2-5.5,5.7v3.2H9v4.2h3.7v9.9h4.6v-9.9C17.3,19.7,20.7,19.7,20.7,19.7z"/>
</svg>
