<svg id="Capa_1" data-name="Capa 1" xmlns="http://www.w3.org/2000/svg" viewBox="0 0 30 30"><defs><style>.cls-1{fill:#040006;stroke:#040006;stroke-miterlimit:10;stroke-width:0.25px;}</style></defs><title>iconos de viajes propios</title><path class="cls-1" d="M3.64,16.86a.52.52,0,0,0,.52.53.53.53,0,0,0,.53-.53V11.28L15,2.65l4.32,3.62A.53.53,0,1,0,20,5.46l-4.65-3.9a.54.54,0,0,0-.68,0L.4,13.51a.52.52,0,0,0-.07.74.53.53,0,0,0,.4.19.5.5,0,0,0,.34-.13l2.57-2.15Z"/><path class="cls-1" d="M4.16,18.43a.52.52,0,0,0-.52.53v1.63a.52.52,0,0,0,.52.52.52.52,0,0,0,.53-.52V19A.53.53,0,0,0,4.16,18.43Z"/><path class="cls-1" d="M29.6,13.51,21.41,6.65a.52.52,0,0,0-.74.07.53.53,0,0,0,.07.74l3.94,3.29V27.51H19.15v-9.4a.52.52,0,0,0-.52-.53H11.37a.52.52,0,0,0-.52.53v9.4H4.69V22.63a.52.52,0,0,0-.53-.52.52.52,0,0,0-.52.52V28a.52.52,0,0,0,.52.53h21a.53.53,0,0,0,.53-.53V11.63l3.2,2.68a.5.5,0,0,0,.34.13.53.53,0,0,0,.4-.19A.52.52,0,0,0,29.6,13.51Zm-17.7,14V18.63h6.2v8.88Z"/></svg>