<?xml version="1.0" encoding="utf-8"?>
<!-- Generator: Adobe Illustrator 23.0.2, SVG Export Plug-In . SVG Version: 6.00 Build 0)  -->
<svg version="1.1" id="Capa_1" xmlns="http://www.w3.org/2000/svg" xmlns:xlink="http://www.w3.org/1999/xlink" x="0px" y="0px"
	 viewBox="0 0 30 30" style="enable-background:new 0 0 30 30;" xml:space="preserve">
<style type="text/css">
	.st0{fill:url(#SVGID_1_);}
	.st1{fill:#FFFFFF;}
</style>
<title>redes</title>
<linearGradient id="SVGID_1_" gradientUnits="userSpaceOnUse" x1="1" y1="14.8898" x2="30.24" y2="14.8898" gradientTransform="matrix(1 0 0 -1 0 29.8898)">
	<stop  offset="0" style="stop-color:#D37E40"/>
	<stop  offset="0" style="stop-color:#D27B41"/>
	<stop  offset="1" style="stop-color:#BA3244"/>
</linearGradient>
<path class="st0" d="M29.6,8v14c0,4.2-3.4,7.6-7.6,7.6H8c-4.2,0-7.6-3.4-7.6-7.6V8c0-4.2,3.4-7.6,7.6-7.6h14
	C26.2,0.4,29.6,3.8,29.6,8z"/>
<path class="st1" d="M19.5,9.5c-0.6,0-1,0.4-1,1s0.4,1,1,1s1-0.4,1-1S20.1,9.5,19.5,9.5z"/>
<path class="st1" d="M15.1,10.8c-2.3,0-4.2,1.9-4.2,4.2s1.9,4.2,4.2,4.2s4.2-1.9,4.2-4.2S17.4,10.8,15.1,10.8L15.1,10.8z M15.1,17.7
	c-1.5,0-2.7-1.2-2.7-2.7c0-1.5,1.2-2.7,2.7-2.7s2.7,1.2,2.7,2.7C17.8,16.5,16.6,17.7,15.1,17.7L15.1,17.7z"/>
<path class="st1" d="M18.4,23.6h-6.8c-2.8,0-5.1-2.3-5.2-5.1v-6.8c0-2.8,2.3-5.1,5.2-5.2h6.8c2.8,0,5.1,2.3,5.1,5.2v6.8
	C23.6,21.3,21.3,23.6,18.4,23.6z M11.6,8C9.6,8,8,9.6,8,11.5c0,0,0,0,0,0.1v6.8c0,2,1.6,3.6,3.5,3.6c0,0,0,0,0.1,0h6.8
	c2,0,3.6-1.6,3.6-3.5c0,0,0,0,0-0.1v-6.8c0-2-1.6-3.6-3.5-3.6c0,0,0,0-0.1,0C18.4,8,11.6,8,11.6,8z"/>
</svg>
