<svg id="Capa_1" data-name="Capa 1" xmlns="http://www.w3.org/2000/svg" viewBox="0 0 30 30"><defs><style>.cls-1{fill:#040006;}</style></defs><title>iconos de viajes propios</title><path class="cls-1" d="M18,12.64a4.57,4.57,0,0,0,.68-.71,4.52,4.52,0,0,0,.56-.88,4.79,4.79,0,0,0,.48-2.11A4.7,4.7,0,1,0,15,13.72,4.72,4.72,0,0,0,18,12.64Zm-6.63-3.7a3.65,3.65,0,1,1,7.3,0,3.77,3.77,0,0,1-.38,1.65,4.17,4.17,0,0,1-.43.69,4,4,0,0,1-.54.55,3.62,3.62,0,0,1-2.3.83A3.69,3.69,0,0,1,11.35,8.94Z"/><path class="cls-1" d="M9.1,15.75c-.27-.55-.51-1.08-.72-1.57a.53.53,0,1,0-1,.42c.22.5.47,1,.73,1.6a.53.53,0,0,0,.48.3.48.48,0,0,0,.23-.05A.53.53,0,0,0,9.1,15.75Z"/><path class="cls-1" d="M21.33,2.63A8.9,8.9,0,0,0,15,0h0A9.2,9.2,0,0,0,6,9.3v.28a9.5,9.5,0,0,0,.68,3.05l.15.42a.53.53,0,0,0,1-.37l-.15-.4A8.77,8.77,0,0,1,7,9.58V9.3a8.13,8.13,0,0,1,8-8.24h0a7.88,7.88,0,0,1,5.59,2.32A8.14,8.14,0,0,1,23,9.2v.38c0,.92-.45,2.93-2.61,7.24a.52.52,0,0,0,.24.7.46.46,0,0,0,.23.06.52.52,0,0,0,.47-.29c1.81-3.61,2.73-6.2,2.73-7.71V9.2A9.21,9.21,0,0,0,21.33,2.63Z"/><path class="cls-1" d="M19.93,18.84a.52.52,0,0,0-.71.21c-1.32,2.45-2.7,4.77-3.62,6.27l-.6,0-.6,0c-.48-.79-1.09-1.8-1.75-2.94l-.44-.76c-.85-1.5-1.62-2.91-2.28-4.19a.53.53,0,0,0-.94.48c.67,1.3,1.44,2.72,2.3,4.23l.44.77c.56.95,1.08,1.82,1.52,2.55-1.66.3-3,1.05-3,2.19C10.23,29.18,12.69,30,15,30s4.77-.82,4.77-2.35c0-1.14-1.36-1.89-3-2.19.92-1.51,2.18-3.66,3.4-5.91A.53.53,0,0,0,19.93,18.84Zm-1.21,8.81c0,.52-1.49,1.29-3.72,1.29s-3.72-.77-3.72-1.29,1-1,2.56-1.22c.44.71.71,1.13.72,1.14a.52.52,0,0,0,.88,0s.28-.43.72-1.14C17.73,26.63,18.72,27.23,18.72,27.65Z"/></svg>