<svg id="Capa_1" data-name="Capa 1" xmlns="http://www.w3.org/2000/svg" viewBox="0 0 30 30"><defs><style>.cls-1{fill:#040006;}</style></defs><title>iconos de viajes propios</title><path class="cls-1" d="M16.74,3.57A2.05,2.05,0,0,0,17.1,2.4a2.1,2.1,0,1,0-4.2,0,2.05,2.05,0,0,0,.36,1.17,13.13,13.13,0,1,0,3.48,0ZM15,1.33A1.07,1.07,0,1,1,13.94,2.4,1.06,1.06,0,0,1,15,1.33Zm0,27.34A12.09,12.09,0,1,1,27.08,16.58,12.1,12.1,0,0,1,15,28.67Z"/><path class="cls-1" d="M18.39,24.68A8.78,8.78,0,0,1,7,12.9a10.36,10.36,0,0,1,.5-.93,7.94,7.94,0,0,1,.93-1.23.52.52,0,0,0-.78-.7,9.9,9.9,0,0,0-1,1.38,8,8,0,0,0-.56,1A9.81,9.81,0,0,0,15,26.4a9.65,9.65,0,0,0,3.79-.76.52.52,0,0,0-.4-1Z"/><path class="cls-1" d="M22.69,21.84a.52.52,0,0,0-.73.09,8,8,0,0,1-1,1.13,6.73,6.73,0,0,1-.71.59.52.52,0,0,0-.11.73.54.54,0,0,0,.42.21.6.6,0,0,0,.31-.1c.27-.21.54-.43.8-.66a9.76,9.76,0,0,0,1.15-1.26A.51.51,0,0,0,22.69,21.84Z"/><path class="cls-1" d="M15,6.77A9.84,9.84,0,0,0,10,8.16a.52.52,0,0,0-.18.72.53.53,0,0,0,.72.17,8.79,8.79,0,0,1,13.29,7.53,8.89,8.89,0,0,1-.86,3.79.53.53,0,0,0,.24.7.64.64,0,0,0,.23.05.52.52,0,0,0,.47-.3,8.72,8.72,0,0,0,.56-1.47,9.62,9.62,0,0,0,.4-2.77A9.83,9.83,0,0,0,15,6.77Z"/><path class="cls-1" d="M10.11,21.62a.39.39,0,0,0,.27.11.36.36,0,0,0,.2-.06l4-2.6,0,0a2.4,2.4,0,0,0,.46.05,2.48,2.48,0,0,0,2.45-2.81l2.88-4.39a.38.38,0,0,0-.52-.52l-4.31,2.83a2.47,2.47,0,0,0-2.89,3l-2.57,3.92A.39.39,0,0,0,10.11,21.62ZM18.74,13,17.16,15.4a2.15,2.15,0,0,0-.39-.52,2.47,2.47,0,0,0-.41-.33ZM14,15.62a1.43,1.43,0,0,1,1-.42,1.43,1.43,0,0,1,1,2.44,1.43,1.43,0,0,1-2-2ZM13,18a2.55,2.55,0,0,0,.72.68l-2.05,1.34Z"/><path class="cls-1" d="M15.52,11.39V9a.52.52,0,0,0-1,0v2.37a.52.52,0,0,0,1,0Z"/><path class="cls-1" d="M14.48,21.78v2.37a.52.52,0,1,0,1,0V21.78a.52.52,0,0,0-1,0Z"/><path class="cls-1" d="M22.56,17.11a.53.53,0,0,0,0-1.05H20.2a.53.53,0,0,0,0,1.05Z"/><path class="cls-1" d="M9.8,16.06H7.44a.53.53,0,0,0,0,1.05H9.8a.53.53,0,0,0,0-1.05Z"/></svg>