<?xml version="1.0" encoding="utf-8"?>
<!-- Generator: Adobe Illustrator 23.0.2, SVG Export Plug-In . SVG Version: 6.00 Build 0)  -->
<svg version="1.1" id="Capa_1" xmlns="http://www.w3.org/2000/svg" xmlns:xlink="http://www.w3.org/1999/xlink" x="0px" y="0px"
	 viewBox="0 0 32 32" style="enable-background:new 0 0 32 32;" xml:space="preserve">
<style type="text/css">
	.st0{fill:url(#SVGID_1_);}
	.st1{fill:url(#SVGID_2_);}
	.st2{fill:url(#SVGID_3_);}
	.st3{fill:url(#SVGID_4_);}
</style>
<title>iconos de viajes propios</title>
<g>
	
		<linearGradient id="SVGID_1_" gradientUnits="userSpaceOnUse" x1="16.128" y1="-811.17" x2="16.018" y2="-780.29" gradientTransform="matrix(1 0 0 -1 0 -778.1102)">
		<stop  offset="0" style="stop-color:#D37E40"/>
		<stop  offset="0" style="stop-color:#D27B41"/>
		<stop  offset="1" style="stop-color:#BA3244"/>
	</linearGradient>
	<path class="st0" d="M19,14.8c0.3-0.2,0.5-0.4,0.7-0.7s0.4-0.6,0.6-0.9c0.3-0.7,0.5-1.4,0.5-2.1c0-2.6-2.2-4.7-4.8-4.7
		s-4.7,2.2-4.7,4.8s2.2,4.7,4.8,4.7C17.1,15.9,18.1,15.5,19,14.8z M12.3,11c0-2,1.6-3.7,3.7-3.7s3.7,1.6,3.7,3.7
		c0,0.6-0.1,1.1-0.4,1.6c-0.1,0.2-0.3,0.5-0.4,0.7c-0.2,0.2-0.3,0.4-0.5,0.6c-0.6,0.5-1.5,0.8-2.3,0.8C14,14.8,12.3,13.2,12.3,11
		L12.3,11L12.3,11z"/>
	
		<linearGradient id="SVGID_2_" gradientUnits="userSpaceOnUse" x1="9.3063" y1="-811.1902" x2="9.1963" y2="-780.3102" gradientTransform="matrix(1 0 0 -1 0 -778.1102)">
		<stop  offset="0" style="stop-color:#D37E40"/>
		<stop  offset="0" style="stop-color:#D27B41"/>
		<stop  offset="1" style="stop-color:#BA3244"/>
	</linearGradient>
	<path class="st1" d="M10.1,17.9c-0.3-0.5-0.5-1.1-0.7-1.6C9.3,16,9,15.9,8.7,16s-0.4,0.4-0.3,0.7c0.2,0.5,0.5,1,0.7,1.6
		c0.1,0.2,0.3,0.3,0.5,0.3c0.1,0,0.2,0,0.2,0C10.1,18.4,10.2,18.1,10.1,17.9L10.1,17.9z"/>
	
		<linearGradient id="SVGID_3_" gradientUnits="userSpaceOnUse" x1="16.0764" y1="-811.1702" x2="15.9664" y2="-780.2902" gradientTransform="matrix(1 0 0 -1 0 -778.1102)">
		<stop  offset="0" style="stop-color:#D37E40"/>
		<stop  offset="0" style="stop-color:#D27B41"/>
		<stop  offset="1" style="stop-color:#BA3244"/>
	</linearGradient>
	<path class="st2" d="M22.3,4.8c-1.7-1.7-4-2.6-6.3-2.6l0,0c-5,0.1-9.1,4.3-9,9.3v0.3c0.1,1,0.3,2.1,0.7,3.1l0.2,0.4
		c0.1,0.3,0.4,0.4,0.7,0.3c0.3-0.1,0.4-0.4,0.3-0.7l-0.1-0.4c-0.4-0.9-0.6-1.8-0.7-2.7v-0.3C8,7,11.6,3.3,16.1,3.3l0,0
		c2.1,0,4.1,0.8,5.6,2.3c1.4,1.5,2.3,3.6,2.3,5.8v0.4c0,0.9-0.5,2.9-2.6,7.2c-0.1,0.3,0,0.6,0.2,0.7l0,0c0.1,0,0.1,0.1,0.2,0.1
		c0.2,0,0.4-0.1,0.5-0.3c1.8-3.6,2.7-6.2,2.7-7.7v-0.4C25,8.9,24.1,6.6,22.3,4.8z"/>
	
		<linearGradient id="SVGID_4_" gradientUnits="userSpaceOnUse" x1="15.6311" y1="-811.1702" x2="15.5111" y2="-780.2902" gradientTransform="matrix(1 0 0 -1 0 -778.1102)">
		<stop  offset="0" style="stop-color:#D37E40"/>
		<stop  offset="0" style="stop-color:#D27B41"/>
		<stop  offset="1" style="stop-color:#BA3244"/>
	</linearGradient>
	<path class="st3" d="M20.9,20.9c-0.3-0.1-0.6,0-0.7,0.2l0,0c-1.3,2.5-2.7,4.8-3.6,6.3H16h-0.6c-0.5-0.8-1.1-1.8-1.8-2.9l-0.4-0.8
		c-0.9-1.5-1.6-2.9-2.3-4.2c-0.2-0.2-0.5-0.3-0.7-0.2c-0.2,0.1-0.3,0.4-0.2,0.6c0.7,1.3,1.4,2.7,2.3,4.2l0.4,0.8
		c0.6,1,1.1,1.8,1.5,2.5c-1.7,0.3-3,1-3,2.2c0,1.5,2.4,2.4,4.7,2.4s4.8-0.8,4.8-2.4c0-1.1-1.4-1.9-3-2.2c0.9-1.5,2.2-3.7,3.4-5.9
		C21.3,21.4,21.2,21.1,20.9,20.9z M19.7,29.9c0,0.5-1.5,1.3-3.7,1.3s-3.7-0.8-3.7-1.3s0.8-1.4,2.4-1.6c0.4,0.7,0.9,1.5,0.9,1.5
		c0.2,0.2,0.5,0.3,0.7,0.2c0.1,0,0.1-0.1,0.2-0.2c0,0,0.4-0.8,0.8-1.5C18.8,28.4,19.7,29.4,19.7,29.9z"/>
</g>
</svg>
