<?xml version="1.0" encoding="utf-8"?>
<!-- Generator: Adobe Illustrator 23.0.2, SVG Export Plug-In . SVG Version: 6.00 Build 0)  -->
<svg version="1.1" id="Capa_1" xmlns="http://www.w3.org/2000/svg" xmlns:xlink="http://www.w3.org/1999/xlink" x="0px" y="0px"
	 viewBox="0 0 32 32" style="enable-background:new 0 0 32 32;" xml:space="preserve">
<style type="text/css">
	.st0{fill:url(#SVGID_1_);}
	.st1{fill:url(#SVGID_2_);}
	.st2{fill:url(#SVGID_3_);}
	.st3{fill:url(#SVGID_4_);}
	.st4{fill:url(#SVGID_5_);}
</style>
<title>Transporte-s1</title>
<g>
	
		<linearGradient id="SVGID_1_" gradientUnits="userSpaceOnUse" x1="7.1" y1="-809.7229" x2="7.1" y2="-791.5929" gradientTransform="matrix(1 0 0 -1 0 -778.1102)">
		<stop  offset="0" style="stop-color:#D37E40"/>
		<stop  offset="0" style="stop-color:#D27B41"/>
		<stop  offset="1" style="stop-color:#BA3244"/>
	</linearGradient>
	<path class="st0" d="M7.1,30.4c0.7,0,1.3-0.6,1.3-1.3c0-0.7-0.6-1.3-1.3-1.3s-1.3,0.6-1.3,1.3l0,0C5.8,29.8,6.4,30.4,7.1,30.4z
		 M7.1,28.5c0.3,0,0.6,0.3,0.5,0.7c0,0.3-0.2,0.5-0.5,0.5s-0.6-0.2-0.7-0.5c0-0.3,0.2-0.6,0.5-0.7C7,28.5,7.1,28.5,7.1,28.5z"/>
	
		<linearGradient id="SVGID_2_" gradientUnits="userSpaceOnUse" x1="22.3" y1="-809.7229" x2="22.3" y2="-791.5929" gradientTransform="matrix(1 0 0 -1 0 -778.1102)">
		<stop  offset="0" style="stop-color:#D37E40"/>
		<stop  offset="0" style="stop-color:#D27B41"/>
		<stop  offset="1" style="stop-color:#BA3244"/>
	</linearGradient>
	<path class="st1" d="M22.3,27.8c-0.7,0-1.3,0.6-1.3,1.3s0.6,1.3,1.3,1.3s1.3-0.6,1.3-1.3S23,27.8,22.3,27.8L22.3,27.8z M22.3,29.7
		c-0.3,0-0.6-0.3-0.6-0.6c0-0.3,0.3-0.6,0.6-0.6c0.3,0,0.6,0.3,0.6,0.6l0,0C22.9,29.4,22.6,29.7,22.3,29.7L22.3,29.7z"/>
	
		<linearGradient id="SVGID_3_" gradientUnits="userSpaceOnUse" x1="16" y1="-809.7229" x2="16" y2="-791.5929" gradientTransform="matrix(1 0 0 -1 0 -778.1102)">
		<stop  offset="0" style="stop-color:#D37E40"/>
		<stop  offset="0" style="stop-color:#D27B41"/>
		<stop  offset="1" style="stop-color:#BA3244"/>
	</linearGradient>
	<path class="st2" d="M30.8,20.5l-2-1.6c0.1-1.4-0.5-2.8-1.4-3.8c-1.1-1-2.5-1.5-4-1.4c-5.4,0.1-21.7,0-21.9,0l0,0
		c-0.1,0-0.3,0.1-0.4,0.1C1,13.9,1,14,1,14.2v14.9c0,0.3,0.2,0.5,0.5,0.5l0,0h2.7c0.4,1.6,2,2.6,3.6,2.3c1.1-0.3,2-1.1,2.3-2.3h5.7
		c0.3,0,0.5-0.2,0.5-0.5l0,0c0-0.3-0.2-0.5-0.5-0.5l0,0h-5.7c-0.4-1.6-2-2.6-3.6-2.3c-1.1,0.3-2,1.1-2.3,2.3H2.1v-3.8h4.6
		c0.3,0,0.5-0.2,0.5-0.5l0,0c0-0.3-0.2-0.5-0.5-0.5l0,0H2.1v-9c2.9,0,16.5,0.1,21.4,0c1.2-0.1,2.3,0.3,3.2,1.1
		c0.8,0.9,1.2,2.1,1.1,3.3c0,0.2,0.1,0.3,0.2,0.4l2,1.6v2.6H12.8c-0.3,0-0.5,0.2-0.5,0.5s0.2,0.5,0.5,0.5l0,0H30v3.8h-4.8
		c-0.4-1.6-2-2.6-3.6-2.3c-1.1,0.3-2,1.1-2.3,2.3h-1.5c-0.3,0-0.5,0.2-0.5,0.5l0,0c0,0.3,0.2,0.5,0.5,0.5l0,0h1.5
		c0.4,1.6,2,2.6,3.6,2.3c1.1-0.3,2-1.1,2.3-2.3h5.3c0.3,0,0.5-0.2,0.5-0.5l0,0v-8.3C31,20.7,30.9,20.6,30.8,20.5z M7.1,27.2
		c1.1,0,1.9,0.9,1.9,1.9C9,30.2,8.1,31,7.1,31s-1.9-0.9-1.9-1.9C5.2,28,6.1,27.2,7.1,27.2L7.1,27.2z M22.3,31
		c-1.1,0-1.9-0.9-1.9-1.9c0-1.1,0.9-1.9,1.9-1.9c1.1,0,1.9,0.9,1.9,1.9l0,0C24.2,30.2,23.3,31,22.3,31L22.3,31z"/>
	
		<linearGradient id="SVGID_4_" gradientUnits="userSpaceOnUse" x1="9.7" y1="-809.7229" x2="9.7" y2="-791.5929" gradientTransform="matrix(1 0 0 -1 0 -778.1102)">
		<stop  offset="0" style="stop-color:#D37E40"/>
		<stop  offset="0" style="stop-color:#D27B41"/>
		<stop  offset="1" style="stop-color:#BA3244"/>
	</linearGradient>
	<path class="st3" d="M8.6,23.7c-0.3,0-0.5,0.2-0.5,0.5s0.2,0.5,0.5,0.5l0,0h2.2c0.3,0,0.5-0.2,0.5-0.5l0,0c0-0.3-0.2-0.5-0.5-0.5
		l0,0H8.6z"/>
	
		<linearGradient id="SVGID_5_" gradientUnits="userSpaceOnUse" x1="15" y1="-809.7229" x2="15" y2="-791.5929" gradientTransform="matrix(1 0 0 -1 0 -778.1102)">
		<stop  offset="0" style="stop-color:#D37E40"/>
		<stop  offset="0" style="stop-color:#D27B41"/>
		<stop  offset="1" style="stop-color:#BA3244"/>
	</linearGradient>
	<path class="st4" d="M24.8,22.1c0.6,0,1-0.4,1-1V19c0-1.4-1.1-2.5-2.5-2.5H5.2c-0.6,0-1,0.4-1,1v3.7c0,0.6,0.4,1,1,1L24.8,22.1z
		 M24.8,19v2.1H17v-3.6h6.2C24.1,17.4,24.7,18.1,24.8,19C24.8,18.9,24.8,18.9,24.8,19L24.8,19z M16,21.1h-5.9v-3.6H16V21.1z
		 M5.2,17.5H9v3.6H5.2V17.5z"/>
</g>
</svg>
