<?xml version="1.0" encoding="utf-8"?>
<!-- Generator: Adobe Illustrator 23.0.2, SVG Export Plug-In . SVG Version: 6.00 Build 0)  -->
<svg version="1.1" id="Capa_1" xmlns="http://www.w3.org/2000/svg" xmlns:xlink="http://www.w3.org/1999/xlink" x="0px" y="0px"
	 viewBox="0 0 30 30" style="enable-background:new 0 0 30 30;" xml:space="preserve">
<style type="text/css">
	.st0{fill:url(#SVGID_1_);}
	.st1{fill:#FFFFFF;}
</style>
<title>redes</title>
<linearGradient id="SVGID_1_" gradientUnits="userSpaceOnUse" x1="0.25" y1="14.8898" x2="29.49" y2="14.8898" gradientTransform="matrix(1 0 0 -1 0 29.8898)">
	<stop  offset="0" style="stop-color:#D37E40"/>
	<stop  offset="0" style="stop-color:#D27B41"/>
	<stop  offset="1" style="stop-color:#BA3244"/>
</linearGradient>
<path class="st0" d="M29.6,8v14c0,4.2-3.4,7.6-7.6,7.6H8c-4.2,0-7.6-3.4-7.6-7.6V8c0-4.2,3.4-7.6,7.6-7.6h14
	C26.2,0.4,29.6,3.8,29.6,8z"/>
<path class="st1" d="M23.1,10c-0.5,0.2-1.1,0.4-1.6,0.5c0.3,0,0.6-0.5,0.8-0.7c0.2-0.3,0.4-0.6,0.5-1V8.7h-0.1
	c-0.6,0.3-1.2,0.6-1.9,0.7h-0.1c-0.1-0.1-0.1-0.1-0.2-0.2c-0.3-0.2-0.6-0.4-0.9-0.6c-0.5-0.2-0.9-0.3-1.4-0.2
	c-0.5,0-0.9,0.2-1.4,0.4C16.4,9,16,9.3,15.7,9.7s-0.5,0.8-0.6,1.3s-0.1,0.9,0,1.4c0,0.1,0,0.1-0.1,0.1c-2.5-0.3-4.9-1.5-6.6-3.4
	C8.3,9,8.3,9,8.2,9.1C7.5,10.4,7.8,12,8.8,13c0.1,0.1,0.3,0.3,0.4,0.4c-0.4,0-0.9-0.2-1.3-0.4c-0.1,0-0.1,0-0.1,0.1s0,0.2,0,0.4
	c0.2,1.2,1,2.2,2.1,2.7c0.1,0.1,0.3,0.1,0.4,0.1c-0.4,0.1-0.8,0.1-1.2,0c-0.1,0-0.1,0-0.1,0.1c0.4,1.1,1.4,2,2.6,2.2
	c0.1,0,0.2,0,0.4,0l0,0c-0.3,0.5-1.3,0.8-1.8,1c-0.9,0.3-1.8,0.5-2.7,0.4c-0.2,0-0.2,0-0.2,0v0.1c0.2,0.1,0.4,0.2,0.6,0.3
	C8.3,20.7,9,21,9.6,21.2c3.3,1,6.9,0.2,9.4-2.2c1.8-1.9,2.7-4.5,2.6-7.2c0-0.1,0.1-0.2,0.2-0.2c0.5-0.4,0.9-0.8,1.3-1.3
	C23.1,10.2,23.1,10.1,23.1,10L23.1,10L23.1,10z"/>
</svg>
