<?xml version="1.0" encoding="utf-8"?>
<!-- Generator: Adobe Illustrator 23.0.2, SVG Export Plug-In . SVG Version: 6.00 Build 0)  -->
<svg version="1.1" id="Capa_1" xmlns="http://www.w3.org/2000/svg" xmlns:xlink="http://www.w3.org/1999/xlink" x="0px" y="0px"
	 viewBox="0 0 30 30" style="enable-background:new 0 0 30 30;" xml:space="preserve">
<style type="text/css">
	.st0{fill:url(#SVGID_1_);}
	.st1{fill:#FFFFFF;}
	.st2{fill-rule:evenodd;clip-rule:evenodd;fill:#FFFFFF;}
</style>
<title>redes</title>
<linearGradient id="SVGID_1_" gradientUnits="userSpaceOnUse" x1="0.8125" y1="14.8898" x2="30.0525" y2="14.8898" gradientTransform="matrix(1 0 0 -1 0 29.8898)">
	<stop  offset="0" style="stop-color:#D37E40"/>
	<stop  offset="0" style="stop-color:#D27B41"/>
	<stop  offset="1" style="stop-color:#BA3244"/>
</linearGradient>
<path class="st0" d="M29.6,8v14c0,4.2-3.4,7.6-7.6,7.6H8c-4.2,0-7.6-3.4-7.6-7.6V8c0-4.2,3.4-7.6,7.6-7.6h14
	C26.2,0.4,29.6,3.8,29.6,8z"/>
<path class="st1" d="M7.1,23.3l1.2-4.5C6,14.7,7.5,9.6,11.6,7.4s9.2-0.8,11.4,3.3s0.8,9.2-3.3,11.4c-2.5,1.4-5.6,1.4-8.1,0L7.1,23.3
	z M11.9,20.3l0.3,0.2c3.2,1.9,7.5,0.9,9.4-2.4s0.9-7.5-2.4-9.4s-7.5-0.9-9.4,2.4c-1.3,2.2-1.3,4.9,0,7.1l0.2,0.3L9.4,21L11.9,20.3z"
	/>
<path class="st2" d="M18.8,15.8c-0.3-0.3-0.8-0.4-1.2-0.3c-0.3,0.1-0.5,0.6-0.7,0.9c-0.1,0.1-0.3,0.2-0.4,0.1
	c-1.1-0.4-2.1-1.3-2.7-2.3c-0.1-0.1-0.1-0.3,0-0.5c0.2-0.2,0.4-0.5,0.5-0.8c0-0.3-0.1-0.7-0.2-0.9c-0.2-0.4-0.4-0.9-0.7-1.1
	c-0.3-0.2-0.7-0.1-1,0.1c-0.5,0.4-0.8,1-0.7,1.7c0,0.2,0,0.4,0.1,0.5c0.1,0.4,0.3,0.8,0.5,1.2c0.2,0.3,0.3,0.6,0.5,0.8
	c0.6,0.9,1.4,1.6,2.3,2.1c0.5,0.3,0.9,0.5,1.5,0.7c0.5,0.2,1.1,0.3,1.7,0.3c0.7-0.1,1.2-0.5,1.5-1.1c0.1-0.2,0.1-0.4,0.1-0.6
	C19.6,16.3,19.1,16,18.8,15.8z"/>
</svg>
