<svg xmlns="http://www.w3.org/2000/svg" xmlns:xlink="http://www.w3.org/1999/xlink" viewBox="0 0 264.06 218.47"><defs><style>.cls-1,.cls-5{fill:none;}.cls-2{isolation:isolate;}.cls-3,.cls-6{fill:#242853;}.cls-4{fill:url(#Degradado_sin_nombre_16);}.cls-5{stroke:#242853;stroke-miterlimit:10;stroke-width:1.5px;}.cls-23,.cls-27,.cls-30,.cls-31,.cls-6{mix-blend-mode:multiply;}.cls-6{opacity:0.5;}.cls-7{clip-path:url(#clip-path);}.cls-8{fill:url(#Degradado_sin_nombre_16-2);}.cls-9{fill:url(#Degradado_sin_nombre_16-3);}.cls-10{fill:url(#Degradado_sin_nombre_8);}.cls-11{fill:url(#Degradado_sin_nombre_16-4);}.cls-12{fill:url(#Degradado_sin_nombre_16-5);}.cls-13{fill:url(#Degradado_sin_nombre_16-6);}.cls-14{fill:url(#Degradado_sin_nombre_16-7);}.cls-15{clip-path:url(#clip-path-2);}.cls-16{fill:url(#Degradado_sin_nombre_16-8);}.cls-17{fill:url(#Degradado_sin_nombre_16-9);}.cls-18{fill:url(#Degradado_sin_nombre_16-10);}.cls-19{fill:url(#Degradado_sin_nombre_16-11);}.cls-20{fill:url(#Degradado_sin_nombre_16-12);}.cls-21{fill:url(#Degradado_sin_nombre_16-13);}.cls-22{fill:url(#Degradado_sin_nombre_16-14);}.cls-23{opacity:0.4;fill:url(#Degradado_sin_nombre_16-15);}.cls-24{fill:url(#Degradado_sin_nombre_16-16);}.cls-25{fill:url(#Degradado_sin_nombre_21);}.cls-26{fill:url(#Degradado_sin_nombre_5);}.cls-28,.cls-30{fill:url(#Degradado_sin_nombre_16-17);}.cls-29,.cls-31{fill:url(#Degradado_sin_nombre_16-18);}.cls-32{fill:url(#Degradado_sin_nombre_16-21);}.cls-33{fill:#fcbd0e;}</style><linearGradient id="Degradado_sin_nombre_16" x1="176.88" y1="43.59" x2="264.06" y2="43.59" gradientTransform="translate(95.4 -143.13) rotate(45)" gradientUnits="userSpaceOnUse"><stop offset="0" stop-color="#e5a107"/><stop offset="1" stop-color="#fdda43"/></linearGradient><clipPath id="clip-path"><rect class="cls-1" x="14.15" y="142.68" width="193.88" height="25.96"/></clipPath><linearGradient id="Degradado_sin_nombre_16-2" x1="-37.68" y1="158.66" x2="299.55" y2="158.66" gradientTransform="translate(162.33 100.2) rotate(73.57)" xlink:href="#Degradado_sin_nombre_16"/><linearGradient id="Degradado_sin_nombre_16-3" x1="-37.68" y1="158.66" x2="299.55" y2="158.66" gradientTransform="translate(186.83 67.42) rotate(73.57)" xlink:href="#Degradado_sin_nombre_16"/><linearGradient id="Degradado_sin_nombre_8" x1="-37.68" y1="158.66" x2="299.55" y2="158.66" gradientTransform="translate(211.33 34.65) rotate(73.57)" gradientUnits="userSpaceOnUse"><stop offset="0.46" stop-color="#e5a107"/><stop offset="1" stop-color="#fdda43"/></linearGradient><linearGradient id="Degradado_sin_nombre_16-4" x1="-37.68" y1="158.66" x2="299.55" y2="158.66" gradientTransform="translate(235.83 1.88) rotate(73.57)" xlink:href="#Degradado_sin_nombre_16"/><linearGradient id="Degradado_sin_nombre_16-5" x1="-37.68" y1="158.66" x2="299.55" y2="158.66" gradientTransform="translate(260.33 -30.89) rotate(73.57)" xlink:href="#Degradado_sin_nombre_16"/><linearGradient id="Degradado_sin_nombre_16-6" x1="-37.68" y1="158.66" x2="299.55" y2="158.66" gradientTransform="translate(284.83 -63.67) rotate(73.57)" xlink:href="#Degradado_sin_nombre_16"/><linearGradient id="Degradado_sin_nombre_16-7" x1="-37.68" y1="158.66" x2="299.55" y2="158.66" gradientTransform="translate(309.33 -96.44) rotate(73.57)" xlink:href="#Degradado_sin_nombre_16"/><clipPath id="clip-path-2"><rect class="cls-1" x="14.15" y="100.07" width="193.88" height="25.96"/></clipPath><linearGradient id="Degradado_sin_nombre_16-8" x1="-37.68" y1="116.05" x2="299.55" y2="116.05" gradientTransform="translate(121.46 69.65) rotate(73.57)" xlink:href="#Degradado_sin_nombre_16"/><linearGradient id="Degradado_sin_nombre_16-9" x1="-37.68" y1="116.05" x2="299.55" y2="116.05" gradientTransform="translate(145.96 36.87) rotate(73.57)" xlink:href="#Degradado_sin_nombre_16"/><linearGradient id="Degradado_sin_nombre_16-10" x1="-37.68" y1="116.05" x2="299.55" y2="116.05" gradientTransform="translate(170.47 4.1) rotate(73.57)" xlink:href="#Degradado_sin_nombre_16"/><linearGradient id="Degradado_sin_nombre_16-11" x1="-37.68" y1="116.05" x2="299.55" y2="116.05" gradientTransform="translate(194.97 -28.67) rotate(73.57)" xlink:href="#Degradado_sin_nombre_16"/><linearGradient id="Degradado_sin_nombre_16-12" x1="-37.68" y1="116.05" x2="299.55" y2="116.05" gradientTransform="translate(219.47 -61.44) rotate(73.57)" xlink:href="#Degradado_sin_nombre_16"/><linearGradient id="Degradado_sin_nombre_16-13" x1="-37.68" y1="116.05" x2="299.55" y2="116.05" gradientTransform="translate(243.97 -94.22) rotate(73.57)" xlink:href="#Degradado_sin_nombre_16"/><linearGradient id="Degradado_sin_nombre_16-14" x1="-37.68" y1="116.05" x2="299.55" y2="116.05" gradientTransform="translate(268.47 -126.99) rotate(73.57)" xlink:href="#Degradado_sin_nombre_16"/><linearGradient id="Degradado_sin_nombre_16-15" x1="14.15" y1="144.68" x2="208.03" y2="144.68" gradientTransform="matrix(1, 0, 0, 1, 0, 0)" xlink:href="#Degradado_sin_nombre_16"/><linearGradient id="Degradado_sin_nombre_16-16" x1="61.89" y1="175.7" x2="109.53" y2="175.7" gradientTransform="matrix(1, 0, 0, 1, 0, 0)" xlink:href="#Degradado_sin_nombre_16"/><linearGradient id="Degradado_sin_nombre_21" x1="53.55" y1="216.09" x2="117.87" y2="216.09" gradientUnits="userSpaceOnUse"><stop offset="0" stop-color="#e5a107"/><stop offset="0.72" stop-color="#fde443"/><stop offset="1" stop-color="#e5a107"/></linearGradient><linearGradient id="Degradado_sin_nombre_5" x1="87.48" y1="175.7" x2="-34.39" y2="175.7" gradientUnits="userSpaceOnUse"><stop offset="0" stop-color="#fdda43" stop-opacity="0"/><stop offset="1" stop-color="#e5a107"/></linearGradient><linearGradient id="Degradado_sin_nombre_16-17" x1="157.24" y1="159.99" x2="157.24" y2="125.09" gradientTransform="matrix(1, 0, 0, -1, 0, 285.34)" xlink:href="#Degradado_sin_nombre_16"/><linearGradient id="Degradado_sin_nombre_16-18" x1="127.88" y1="159.99" x2="127.88" y2="125.09" gradientTransform="matrix(1, 0, 0, -1, 0, 285.34)" xlink:href="#Degradado_sin_nombre_16"/><linearGradient id="Degradado_sin_nombre_16-21" x1="146.92" y1="211.51" x2="146.92" y2="159.06" gradientTransform="matrix(1, 0, 0, 1, 0, 0)" xlink:href="#Degradado_sin_nombre_16"/></defs><g class="cls-2"><g id="Capa_1" data-name="Capa 1"><rect class="cls-3" x="217.61" y="68.02" width="5.71" height="150.46"/><rect class="cls-4" x="187.44" y="10.55" width="66.07" height="66.07" rx="7.55" transform="translate(33.75 168.66) rotate(-45)"/><rect class="cls-5" x="191.67" y="14.79" width="57.6" height="57.6" rx="6.59" transform="translate(33.75 168.66) rotate(-45)"/><path class="cls-3" d="M215.18,55.22c0-2.75,2.19-4.8,5.31-4.8s5.27,2,5.27,4.8a5.31,5.31,0,0,1-10.58,0Zm5.31-28.16h0a4.85,4.85,0,0,1,4.82,5.26l-1,12a3.83,3.83,0,0,1-3.82,3.51h0a3.82,3.82,0,0,1-3.81-3.51l-1-12A4.85,4.85,0,0,1,220.49,27.06Z"/><polygon class="cls-3" points="56.45 201.03 44.79 201.03 32.08 88.73 43.74 88.73 56.45 201.03"/><polygon class="cls-6" points="56.45 201.03 44.79 201.03 32.08 88.73 43.74 88.73 56.45 201.03"/><rect class="cls-3" x="32.08" y="88.73" width="11.67" height="118.34"/><polygon class="cls-3" points="165.73 201.03 177.4 201.03 190.11 88.73 178.44 88.73 165.73 201.03"/><polygon class="cls-6" points="165.73 201.03 177.4 201.03 190.11 88.73 178.44 88.73 165.73 201.03"/><rect class="cls-3" x="178.44" y="88.73" width="11.67" height="118.34" transform="translate(368.55 295.8) rotate(180)"/><rect class="cls-3" x="14.15" y="142.68" width="193.88" height="25.96"/><g class="cls-7"><rect class="cls-8" x="-37.93" y="148.25" width="104.17" height="20.81" transform="translate(-142.03 127.35) rotate(-73.57)"/><rect class="cls-9" x="-3.76" y="148.25" width="104.17" height="20.81" transform="translate(-117.53 160.12) rotate(-73.57)"/><rect class="cls-10" x="30.4" y="148.25" width="104.17" height="20.81" transform="translate(-93.02 192.89) rotate(-73.57)"/><rect class="cls-11" x="64.57" y="148.25" width="104.17" height="20.81" transform="matrix(0.28, -0.96, 0.96, 0.28, -68.52, 225.66)"/><rect class="cls-12" x="98.74" y="148.25" width="104.17" height="20.81" transform="matrix(0.28, -0.96, 0.96, 0.28, -44.02, 258.44)"/><rect class="cls-13" x="132.91" y="148.25" width="104.17" height="20.81" transform="matrix(0.28, -0.96, 0.96, 0.28, -19.52, 291.21)"/><rect class="cls-14" x="167.08" y="148.25" width="104.17" height="20.81" transform="matrix(0.28, -0.96, 0.96, 0.28, 4.98, 323.98)"/></g><rect class="cls-3" x="14.15" y="100.07" width="193.88" height="25.96"/><g class="cls-15"><rect class="cls-16" x="-37.93" y="105.65" width="104.17" height="20.81" transform="translate(-101.16 96.8) rotate(-73.57)"/><rect class="cls-17" x="-3.76" y="105.65" width="104.17" height="20.81" transform="translate(-76.66 129.57) rotate(-73.57)"/><rect class="cls-18" x="30.4" y="105.65" width="104.17" height="20.81" transform="translate(-52.16 162.34) rotate(-73.57)"/><rect class="cls-19" x="64.57" y="105.65" width="104.17" height="20.81" transform="translate(-27.66 195.11) rotate(-73.57)"/><rect class="cls-20" x="98.74" y="105.65" width="104.17" height="20.81" transform="translate(-3.16 227.89) rotate(-73.57)"/><rect class="cls-21" x="132.91" y="105.65" width="104.17" height="20.81" transform="translate(21.34 260.66) rotate(-73.57)"/><rect class="cls-22" x="167.08" y="105.65" width="104.17" height="20.81" transform="translate(45.85 293.43) rotate(-73.57)"/></g><rect class="cls-23" x="14.15" y="142.68" width="193.88" height="4"/><path class="cls-24" d="M87.69,136.35h0a2.79,2.79,0,0,0-4,0h0a2.72,2.72,0,0,0-.76,1.4L61.89,215.87h47.64L88.45,137.75A2.8,2.8,0,0,0,87.69,136.35Z"/><rect class="cls-25" x="53.55" y="213.7" width="64.32" height="4.77" rx="1.79"/><polygon class="cls-3" points="91.9 150.55 79.51 150.55 74.6 168.77 96.82 168.77 91.9 150.55"/><polygon class="cls-3" points="70.86 182.63 65.94 200.84 105.47 200.84 100.56 182.63 70.86 182.63"/><path class="cls-26" d="M87.69,136.35h0a2.79,2.79,0,0,0-4,0h0a2.72,2.72,0,0,0-.76,1.4L61.89,215.87h47.64L88.45,137.75A2.8,2.8,0,0,0,87.69,136.35Z"/><rect class="cls-3" x="122.55" y="180.9" width="39.98" height="5.31"/><rect class="cls-6" x="122.55" y="180.9" width="39.98" height="5.31"/><rect class="cls-3" x="125.54" y="176.9" width="33.98" height="41.58"/><rect class="cls-3" x="134.87" y="209.55" width="15.42" height="3.38"/><g class="cls-27"><rect class="cls-3" x="134.87" y="209.55" width="15.42" height="3.38"/></g><path class="cls-28" d="M164.19,190.88a21.57,21.57,0,0,0-1.4-7.67l-.14-.37h-.13v3.37h0a20.23,20.23,0,0,1,.56,4.67,20.52,20.52,0,0,1-12.76,19v1.22A21.67,21.67,0,0,0,164.19,190.88Z"/><path class="cls-29" d="M122,190.88a20.78,20.78,0,0,1,.55-4.67h0v-3.37h-.13l-.14.37a21.63,21.63,0,0,0,12.59,27.89v-1.21A20.54,20.54,0,0,1,122,190.88Z"/><path class="cls-30" d="M164.19,190.88a21.57,21.57,0,0,0-1.4-7.67l-.14-.37h-.13v3.37h0a20.23,20.23,0,0,1,.56,4.67,20.52,20.52,0,0,1-12.76,19v1.22A21.67,21.67,0,0,0,164.19,190.88Z"/><path class="cls-31" d="M122,190.88a20.78,20.78,0,0,1,.55-4.67h0v-3.37h-.13l-.14.37a21.63,21.63,0,0,0,12.59,27.89v-1.21A20.54,20.54,0,0,1,122,190.88Z"/><path class="cls-32" d="M152.06,176.9H136.68v20.45a2.57,2.57,0,0,0,5.13,0v-10.6a2.56,2.56,0,1,0,5.12,0v5.94a2.57,2.57,0,0,0,5.13,0v-2.85a2.56,2.56,0,0,0,5.11-.2V176.9Z"/><circle class="cls-33" cx="170.18" cy="68.78" r="18.24"/><path class="cls-33" d="M150.74,49a7.7,7.7,0,0,1-7.7,7.7,7.7,7.7,0,0,1,7.7,7.7,7.69,7.69,0,0,1,7.7-7.7A7.7,7.7,0,0,1,150.74,49Z"/><path class="cls-33" d="M7.42,168.28A7.42,7.42,0,0,1,0,175.7a7.42,7.42,0,0,1,7.42,7.42,7.42,7.42,0,0,1,7.42-7.42A7.42,7.42,0,0,1,7.42,168.28Z"/></g></g></svg>